<?xml version="1.0" encoding="UTF-8"?><svg id="Calque_2" xmlns="http://www.w3.org/2000/svg" viewBox="0 0 367.28 378.07"><defs><style>.cls-1{fill:blue;}.cls-2{fill:#fff;}.cls-3{fill:#ffa96a;}</style></defs><g id="Calque_1-2"><rect class="cls-1" width="367.28" height="378.07"/><g><path class="cls-2" d="m46.31,35.86h40.42v14.66h-21.03s0,2.98,0,2.98h15.29v10.86h-15.29s0,46.23,0,46.23h-19.39s0-45.51,0-45.51h0v-12.3h0v-1.54h0v-15.38Z"/><path class="cls-2" d="m68.82,110.6v-25.56s17.92,0,17.92,0v25.56s-17.92,0-17.92,0Z"/><path class="cls-3" d="m108.02,53.54v43.13h6.33v-2.98h-3.16v-8.6h19.52c2.28,0,4.13,1.85,4.13,4.13v21.39h-33.49c-6.22,0-11.27-5.04-11.27-11.27v-52.2c0-6.22,5.04-11.27,11.27-11.27h12.47s0,17.69,0,17.69h-5.81Z"/><path class="cls-2" d="m138.05,58.54h18.33s0,52.16,0,52.16h-18.33v-33.6h-3.2v5h-17.91v-46.14h17.91v28.83h3.2v-6.26Z"/><path class="cls-2" d="m138.05,35.97h49.6v19.61h-10.47v55.13h-17.59v-55.13h-21.54s0-19.61,0-19.61Z"/><polyline class="cls-2" points="68.91 82.06 68.91 67.35 86.74 67.34 86.74 82.06"/><path class="cls-2" d="m320.96,110.76h-40.42v-14.66h21.03s0-2.98,0-2.98h-15.29v-10.86h15.29s0-46.23,0-46.23h19.39s0,45.51,0,45.51h0v12.3h0v1.54h0v15.38Z"/><path class="cls-2" d="m298.46,36.02v25.56s-17.92,0-17.92,0v-25.56s17.92,0,17.92,0Z"/><path class="cls-2" d="m259.26,93.09v-43.13h-6.33v2.98h3.16v8.6h-19.52c-2.28,0-4.13-1.85-4.13-4.13v-21.39h33.49c6.22,0,11.27,5.04,11.27,11.27v52.2c0,6.22-5.04,11.27-11.27,11.27h-12.47s0-17.69,0-17.69h5.81Z"/><path class="cls-2" d="m229.23,88.08h-18.33s0-52.16,0-52.16h18.33v33.6h3.2v-5h17.91v46.14h-17.91v-28.83h-3.2v6.26Z"/><path class="cls-2" d="m229.23,110.65h-49.6v-19.61h10.47v-55.13h17.59v55.13h21.54s0,19.61,0,19.61Z"/><polyline class="cls-2" points="298.37 64.56 298.37 79.28 280.54 79.28 280.54 64.56"/><path class="cls-2" d="m46.31,187.79h40.42v-14.66h-21.03s0-2.98,0-2.98h15.29v-10.86h-15.29s0-46.23,0-46.23h-19.39s0,45.51,0,45.51h0v12.3h0v1.54h0v15.38Z"/><path class="cls-2" d="m68.82,113.05v25.56s17.92,0,17.92,0v-25.56s-17.92,0-17.92,0Z"/><path class="cls-2" d="m108.02,170.12v-43.13h6.33v2.98h-3.16v8.6h19.52c2.28,0,4.13-1.85,4.13-4.13v-21.39h-33.49c-6.22,0-11.27,5.04-11.27,11.27v52.2c0,6.22,5.04,11.27,11.27,11.27h12.47s0-17.69,0-17.69h-5.81Z"/><path class="cls-2" d="m138.05,165.11h18.33s0-52.16,0-52.16h-18.33v33.6h-3.2v-5h-17.91v46.14h17.91v-28.83h3.2v6.26Z"/><path class="cls-2" d="m138.05,187.68h49.6v-19.61h-10.47v-55.13h-17.59v55.13h-21.54s0,19.61,0,19.61Z"/><polyline class="cls-2" points="68.91 141.59 68.91 156.31 86.74 156.31 86.74 141.59"/><path class="cls-2" d="m320.96,112.89h-40.42v14.66h21.03s0,2.98,0,2.98h-15.29v10.86h15.29s0,46.23,0,46.23h19.39s0-45.51,0-45.51h0v-12.3h0v-1.54h0v-15.38Z"/><path class="cls-3" d="m298.46,187.63v-25.56s-17.92,0-17.92,0v25.56s17.92,0,17.92,0Z"/><path class="cls-2" d="m259.26,130.57v43.13h-6.33v-2.98h3.16v-8.6h-19.52c-2.28,0-4.13,1.85-4.13,4.13v21.39h33.49c6.22,0,11.27-5.04,11.27-11.27v-52.2c0-6.22-5.04-11.27-11.27-11.27h-12.47s0,17.69,0,17.69h5.81Z"/><path class="cls-2" d="m229.23,135.58h-18.33s0,52.16,0,52.16h18.33v-33.6h3.2v5h17.91v-46.14h-17.91v28.83h-3.2v-6.26Z"/><path class="cls-2" d="m229.23,113h-49.6v19.61h10.47v55.13h17.59v-55.13h21.54s0-19.61,0-19.61Z"/><polyline class="cls-3" points="298.37 159.09 298.37 144.38 280.54 144.38 280.54 159.09"/><path class="cls-2" d="m46.31,190.28h40.42v14.66h-21.03s0,2.98,0,2.98h15.29v10.86h-15.29s0,46.23,0,46.23h-19.39s0-45.51,0-45.51h0v-12.3h0v-1.54h0v-15.38Z"/><path class="cls-2" d="m68.82,265.02v-25.56s17.92,0,17.92,0v25.56s-17.92,0-17.92,0Z"/><path class="cls-2" d="m108.02,207.95v43.13h6.33v-2.98h-3.16v-8.6h19.52c2.28,0,4.13,1.85,4.13,4.13v21.39h-33.49c-6.22,0-11.27-5.04-11.27-11.27v-52.2c0-6.22,5.04-11.27,11.27-11.27h12.47s0,17.69,0,17.69h-5.81Z"/><path class="cls-2" d="m138.05,212.96h18.33s0,52.16,0,52.16h-18.33v-33.6h-3.2v5h-17.91v-46.14h17.91v28.83h3.2v-6.26Z"/><path class="cls-2" d="m138.05,190.39h49.6v19.61h-10.47v55.13h-17.59v-55.13h-21.54s0-19.61,0-19.61Z"/><polyline class="cls-2" points="68.91 236.48 68.91 221.76 86.74 221.76 86.74 236.48"/><path class="cls-2" d="m320.96,265.18h-40.42v-14.66h21.03s0-2.98,0-2.98h-15.29v-10.86h15.29s0-46.23,0-46.23h19.39s0,45.51,0,45.51h0v12.3h0v1.54h0v15.38Z"/><path class="cls-2" d="m298.46,190.44v25.56s-17.92,0-17.92,0v-25.56s17.92,0,17.92,0Z"/><path class="cls-2" d="m259.26,247.5v-43.13h-6.33v2.98h3.16v8.6h-19.52c-2.28,0-4.13-1.85-4.13-4.13v-21.39h33.49c6.22,0,11.27,5.04,11.27,11.27v52.2c0,6.22-5.04,11.27-11.27,11.27h-12.47s0-17.69,0-17.69h5.81Z"/><path class="cls-2" d="m229.23,242.49h-18.33s0-52.16,0-52.16h18.33v33.6h3.2v-5h17.91v46.14h-17.91v-28.83h-3.2v6.26Z"/><path class="cls-3" d="m229.23,265.07h-49.6v-19.61h10.47v-55.13h17.59v55.13h21.54s0,19.61,0,19.61Z"/><polyline class="cls-2" points="298.37 218.98 298.37 233.69 280.54 233.69 280.54 218.98"/><path class="cls-3" d="m46.31,342.21h40.42v-14.66h-21.03s0-2.98,0-2.98h15.29v-10.86h-15.29s0-46.23,0-46.23h-19.39s0,45.51,0,45.51h0v12.3h0v1.54h0v15.38Z"/><path class="cls-2" d="m68.82,267.47v25.56s17.92,0,17.92,0v-25.56s-17.92,0-17.92,0Z"/><path class="cls-2" d="m108.02,324.53v-43.13h6.33v2.98h-3.16v8.6h19.52c2.28,0,4.13-1.85,4.13-4.13v-21.39h-33.49c-6.22,0-11.27,5.04-11.27,11.27v52.2c0,6.22,5.04,11.27,11.27,11.27h12.47s0-17.69,0-17.69h-5.81Z"/><path class="cls-2" d="m138.05,319.53h18.33s0-52.16,0-52.16h-18.33v33.6h-3.2v-5h-17.91v46.14h17.91v-28.83h3.2v6.26Z"/><path class="cls-2" d="m138.05,342.1h49.6v-19.61h-10.47v-55.13h-17.59v55.13h-21.54s0,19.61,0,19.61Z"/><polyline class="cls-2" points="68.91 296.01 68.91 310.72 86.74 310.72 86.74 296.01"/><path class="cls-2" d="m320.96,267.31h-40.42v14.66h21.03s0,2.98,0,2.98h-15.29v10.86h15.29s0,46.23,0,46.23h19.39s0-45.51,0-45.51h0v-12.3h0v-1.54h0v-15.38Z"/><path class="cls-2" d="m298.46,342.05v-25.56s-17.92,0-17.92,0v25.56s17.92,0,17.92,0Z"/><path class="cls-2" d="m259.26,284.98v43.13h-6.33v-2.98h3.16v-8.6h-19.52c-2.28,0-4.13,1.85-4.13,4.13v21.39h33.49c6.22,0,11.27-5.04,11.27-11.27v-52.2c0-6.22-5.04-11.27-11.27-11.27h-12.47s0,17.69,0,17.69h5.81Z"/><path class="cls-2" d="m229.23,289.99h-18.33s0,52.16,0,52.16h18.33v-33.6h3.2v5h17.91v-46.14h-17.91v28.83h-3.2v-6.26Z"/><path class="cls-2" d="m229.23,267.42h-49.6v19.61h10.47v55.13h17.59v-55.13h21.54s0-19.61,0-19.61Z"/><polyline class="cls-2" points="298.37 313.51 298.37 298.79 280.54 298.79 280.54 313.51"/></g></g></svg>