<?xml version="1.0" encoding="UTF-8"?><svg id="Calque_2" xmlns="http://www.w3.org/2000/svg" viewBox="0 0 267.17 222.7"><defs><style>.cls-1{fill:blue;}.cls-2{fill:#fff;}.cls-3{fill:#ffa96a;}</style></defs><g id="Calque_1-2"><rect class="cls-1" width="267.17" height="222.7"/><rect class="cls-3" x="87.69" width="86.97" height="222.7"/><g><polygon class="cls-3" points="56.23 188.42 71.83 182 57.17 175.97 64.03 159.53 46.6 166.8 39.34 149.16 32 167.01 15.74 160.23 22.14 175.58 6.53 182 24.36 189.34 17.43 205.95 33.7 199.16 39.86 214.15 46.21 198.72 63.54 205.95 56.23 188.42"/><polygon class="cls-2" points="61.68 187.29 77.28 180.87 62.63 174.84 69.49 158.4 52.05 165.67 44.79 148.03 37.45 165.88 21.19 159.1 27.6 174.45 11.98 180.87 29.81 188.21 22.88 204.82 39.15 198.03 45.32 213.02 51.66 197.59 68.99 204.82 61.68 187.29"/></g><g><polygon class="cls-3" points="235.45 189.24 251.05 182.82 236.39 176.79 243.25 160.35 225.82 167.62 218.56 149.97 211.21 167.83 194.96 161.05 201.36 176.4 185.74 182.82 203.57 190.16 196.65 206.77 212.92 199.98 219.08 214.97 225.43 199.54 242.76 206.77 235.45 189.24"/><polygon class="cls-2" points="240.9 188.11 256.5 181.69 241.84 175.66 248.7 159.21 231.27 166.49 224.01 148.84 216.67 166.7 200.41 159.92 206.81 175.27 191.2 181.69 209.03 189.03 202.1 205.64 218.37 198.85 224.53 213.84 230.88 198.41 248.21 205.64 240.9 188.11"/></g><g><polygon class="cls-3" points="57.46 116.49 73.07 110.07 58.41 104.04 65.27 87.59 47.83 94.86 40.58 77.22 33.23 95.07 16.98 88.29 23.38 103.65 7.76 110.07 25.59 117.4 18.66 134.01 34.93 127.23 41.1 142.21 47.45 126.79 64.77 134.01 57.46 116.49"/><polygon class="cls-2" points="62.92 115.36 78.52 108.94 63.86 102.91 70.72 86.46 53.29 93.73 46.03 76.09 38.68 93.94 22.43 87.16 28.83 102.51 13.21 108.94 31.04 116.27 24.12 132.88 40.39 126.1 46.55 141.08 52.9 125.66 70.23 132.88 62.92 115.36"/></g><g><polygon class="cls-3" points="236.68 117.31 252.28 110.89 237.63 104.86 244.48 88.41 227.05 95.68 219.79 78.04 212.45 95.89 196.19 89.11 202.6 104.46 186.98 110.89 204.81 118.22 197.88 134.83 214.15 128.05 220.32 143.03 226.66 127.6 243.99 134.83 236.68 117.31"/><polygon class="cls-2" points="242.13 116.17 257.74 109.76 243.08 103.73 249.94 87.28 232.5 94.55 225.24 76.91 217.9 94.76 201.65 87.98 208.05 103.33 192.43 109.76 210.26 117.09 203.33 133.7 219.6 126.91 225.77 141.9 232.11 126.47 249.44 133.7 242.13 116.17"/></g><g><polygon class="cls-2" points="144.49 46.89 160.09 40.47 145.44 34.44 152.29 17.99 134.86 25.26 127.6 7.62 120.26 25.47 104 18.69 110.41 34.05 94.79 40.47 112.62 47.8 105.69 64.41 121.96 57.63 128.13 72.61 134.47 57.19 151.8 64.41 144.49 46.89"/><polygon class="cls-1" points="149.94 45.76 165.55 39.34 150.89 33.31 157.75 16.86 140.31 24.13 133.06 6.49 125.71 24.34 109.46 17.56 115.86 32.91 100.24 39.34 118.07 46.67 111.14 63.28 127.41 56.5 133.58 71.48 139.92 56.06 157.25 63.28 149.94 45.76"/></g><g><polygon class="cls-3" points="57.46 47.32 73.07 40.9 58.41 34.87 65.27 18.42 47.83 25.69 40.58 8.05 33.23 25.9 16.98 19.12 23.38 34.47 7.76 40.9 25.59 48.23 18.66 64.84 34.93 58.06 41.1 73.04 47.45 57.62 64.77 64.84 57.46 47.32"/><polygon class="cls-2" points="62.92 46.19 78.52 39.77 63.86 33.74 70.72 17.29 53.29 24.56 46.03 6.92 38.68 24.77 22.43 17.99 28.83 33.34 13.21 39.77 31.04 47.1 24.12 63.71 40.39 56.93 46.55 71.91 52.9 56.49 70.23 63.71 62.92 46.19"/></g><g><polygon class="cls-3" points="236.68 48.13 252.28 41.72 237.63 35.69 244.48 19.24 227.05 26.51 219.79 8.87 212.45 26.72 196.19 19.94 202.6 35.29 186.98 41.72 204.81 49.05 197.88 65.66 214.15 58.87 220.32 73.86 226.66 58.43 243.99 65.66 236.68 48.13"/><polygon class="cls-2" points="242.13 47 257.74 40.59 243.08 34.56 249.94 18.11 232.5 25.38 225.24 7.74 217.9 25.59 201.65 18.81 208.05 34.16 192.43 40.59 210.26 47.92 203.33 64.53 219.6 57.74 225.77 72.73 232.11 57.3 249.44 64.53 242.13 47"/></g><g><polygon class="cls-2" points="145.5 117.92 161.1 111.5 146.44 105.47 153.3 89.03 135.87 96.3 128.61 78.66 121.27 96.51 105.01 89.73 111.41 105.08 95.8 111.5 113.63 118.84 106.7 135.45 122.97 128.66 129.13 143.65 135.48 128.22 152.81 135.45 145.5 117.92"/><polygon class="cls-1" points="150.95 116.79 166.55 110.37 151.89 104.34 158.75 87.9 141.32 95.17 134.06 77.52 126.72 95.38 110.46 88.6 116.86 103.95 101.25 110.37 119.08 117.71 112.15 134.32 128.42 127.53 134.58 142.52 140.93 127.09 158.26 134.32 150.95 116.79"/></g><g><polygon class="cls-2" points="147.22 189.2 162.82 182.78 148.16 176.75 155.02 160.3 137.59 167.57 130.33 149.93 122.98 167.78 106.73 161 113.13 176.35 97.51 182.78 115.34 190.11 108.42 206.72 124.69 199.94 130.85 214.92 137.2 199.5 154.53 206.72 147.22 189.2"/><polygon class="cls-1" points="152.67 188.07 168.27 181.65 153.61 175.62 160.47 159.17 143.04 166.44 135.78 148.8 128.44 166.65 112.18 159.87 118.58 175.22 102.97 181.65 120.8 188.98 113.87 205.59 130.14 198.81 136.3 213.79 142.65 198.36 159.98 205.59 152.67 188.07"/></g></g></svg>