<?xml version="1.0" encoding="UTF-8"?><svg id="Calque_2" xmlns="http://www.w3.org/2000/svg" viewBox="0 0 120.8 112.43"><defs><style>.cls-1{fill:blue;}.cls-2{fill:#fff;}.cls-3{fill:#ffa96a;}</style></defs><g id="Calque_1-2"><g><polygon class="cls-3" points="85.98 67.93 112.97 56.82 87.61 46.39 99.48 17.94 69.32 30.52 56.76 0 44.06 30.88 15.94 19.16 27.02 45.71 0 56.82 30.84 69.51 18.86 98.24 47 86.51 57.67 112.43 68.65 85.74 98.62 98.24 85.98 67.93"/><polygon class="cls-1" points="93.8 67.93 120.8 56.82 95.44 46.39 107.3 17.94 77.15 30.52 64.59 0 51.89 30.88 23.77 19.16 34.84 45.71 7.83 56.82 38.67 69.51 26.69 98.24 54.83 86.51 65.5 112.43 76.47 85.74 106.45 98.24 93.8 67.93"/><polygon class="cls-2" points="86.78 65.14 107.34 56.68 88.02 48.73 97.06 27.06 74.09 36.64 64.52 13.4 54.85 36.92 33.43 27.99 41.86 48.21 21.29 56.68 44.78 66.34 35.65 88.23 57.09 79.29 65.21 99.03 73.58 78.71 96.41 88.23 86.78 65.14"/></g></g></svg>