<?xml version="1.0" encoding="UTF-8"?><svg id="Calque_2" xmlns="http://www.w3.org/2000/svg" viewBox="0 0 94.34 134.47"><defs><style>.cls-1{fill:blue;}</style></defs><g id="Calque_1-2"><path class="cls-1" d="m16.53,92.83c-.2-.98-.31-2.09,0-3.21.03-.09-.03-.22-.08-.32-1.35-2.85-2.74-5.69-4.04-8.56-3.49-7.72-6.52-15.61-8.79-23.78-1.03-3.71-1.93-7.45-2.52-11.26-.36-2.31-.63-4.64-.86-6.98-.29-2.93-.31-5.86-.13-8.8.32-5.14,1.31-10.12,3.53-14.8,2.6-5.49,6.49-9.76,11.99-12.47,2.44-1.2,5.01-1.97,7.7-2.36,5.7-.81,11.18.03,16.47,2.21,5.03,2.07,9.32,5.19,12.9,9.28.03.04.07.08.1.11.9-.45,1.79-.91,2.69-1.32,3.11-1.42,6.36-2.35,9.74-2.81,1.3-.18,2.62-.34,3.93-.36,4.19-.06,8.05,1.13,11.58,3.35,4.8,3.02,8.2,7.25,10.55,12.36,1.43,3.11,2.32,6.39,2.76,9.78.35,2.68.38,5.36.17,8.05-.51,6.46-2.28,12.61-4.62,18.61-1.93,4.94-4.26,9.7-6.8,14.34-.17.32-.23.59-.13.95.32,1.11.25,2.25.06,3.38-.02.1-.03.23.02.3.29.43.3.94.33,1.42.19,2.87-1.11,4.97-3.39,6.58-.16.12-.31.29-.4.47-5.18,10.42-10.36,20.85-15.54,31.28-.29.58-.71.78-1.36.72-2-.2-3.85-.83-5.46-2.05-.65-.49-1.25-1.08-1.83-1.66-.4-.4-.39-.89-.14-1.4.94-1.89,1.87-3.78,2.81-5.66,4.25-8.57,8.51-17.13,12.74-25.7.21-.42.17-.95.23-1.44.31-2.61,1.53-4.66,3.72-6.14.34-.23.7-.26,1.07-.11.2.09.3.04.42-.12.76-.97,1.64-1.81,2.85-2.22.09-.03.17-.13.22-.22,2.93-5.33,5.58-10.79,7.64-16.53,1.19-3.33,2.18-6.71,2.83-10.19.65-3.48.96-6.98.68-10.52-.45-5.58-2.16-10.72-5.55-15.23-2.29-3.04-5.11-5.44-8.63-6.95-2.52-1.08-5.15-1.55-7.9-1.32-4.36.38-8.53,1.46-12.42,3.51-.09.05-.18.1-.29.16.39.65.79,1.28,1.16,1.93,1.82,3.21,3.05,6.64,3.75,10.26.52,2.67.74,5.37.63,8.09-.23,5.61-1.27,11.05-3.66,16.16-1.13,2.41-2.58,4.59-4.62,6.34-1.39,1.19-2.94,2.07-4.77,2.36-2.23.36-4.23-.18-6.01-1.55-1.72-1.32-2.85-3.09-3.69-5.06-.9-2.1-1.39-4.31-1.67-6.57-.27-2.15-.33-4.32-.24-6.48.14-3.49.45-6.97,1.55-10.32,2.13-6.49,5.91-11.81,11.29-16,.08-.07.17-.13.28-.22-.18-.2-.35-.4-.53-.59-4.27-4.48-9.4-7.45-15.43-8.84-2.97-.68-5.98-.87-9-.46-6.64.9-11.82,4.13-15.45,9.78-2.05,3.18-3.25,6.7-3.98,10.4-.75,3.82-.92,7.67-.76,11.55.18,4.22.78,8.39,1.64,12.53,1.77,8.52,4.54,16.72,7.86,24.75,1.97,4.77,4.13,9.45,6.42,14.07.11.22.25.33.47.42,1.03.42,1.88,1.1,2.66,1.87.14.13.25.2.45.14.34-.1.66.01.93.22,1.97,1.46,3.12,3.4,3.41,5.84.01.09.05.17.04.25-.15,1.25.47,2.27.95,3.34,3.89,8.61,7.78,17.22,11.67,25.82.65,1.44,1.3,2.89,1.95,4.33.28.63.22,1.02-.27,1.51-2.02,2.05-4.47,3.15-7.34,3.33-.7.04-1.06-.18-1.35-.8-4.3-9.51-8.59-19.03-12.89-28.54-.49-1.09-.98-2.18-1.49-3.27-.08-.17-.22-.34-.37-.46-1.27-.97-2.29-2.12-2.83-3.65-.46-1.31-.48-2.65-.16-3.99.07-.29.34-.54.58-.92ZM51.9,17.4c-.37.29-.67.52-.95.76-5.94,4.97-9.56,11.21-10.38,18.98-.3,2.87-.41,5.75-.15,8.63.18,1.98.53,3.92,1.23,5.79.55,1.46,1.26,2.82,2.46,3.86,1.12.97,2.4,1.23,3.8.71,1.19-.44,2.12-1.24,2.95-2.16,1.45-1.6,2.45-3.47,3.26-5.46,1.16-2.86,1.83-5.85,2.27-8.9.44-3.12.52-6.25.13-9.38-.4-3.18-1.24-6.23-2.63-9.11-.6-1.25-1.31-2.45-1.99-3.72Zm29.65,55.56s.04-.05.06-.08c3.03-5.56,5.74-11.27,7.8-17.26,1.56-4.51,2.73-9.11,3.19-13.88.28-2.85.29-5.69-.07-8.53-.42-3.35-1.3-6.56-2.72-9.62-2.3-4.94-5.63-8.99-10.34-11.81-3.17-1.9-6.61-2.92-10.32-2.84-1.3.03-2.6.19-3.9.37-3.07.42-6.03,1.25-8.85,2.52-7.65,3.44-13.08,9.07-16.37,16.77-1.62,3.78-2.15,7.78-2.28,11.84-.06,1.84.01,3.69.12,5.52.11,2.01.51,3.99,1.16,5.9.63,1.85,1.49,3.58,2.87,4.99,1.72,1.75,3.77,2.48,6.2,1.89,1.63-.39,2.96-1.33,4.13-2.49,1.99-1.96,3.31-4.35,4.34-6.92,1.56-3.92,2.36-8.02,2.69-12.2.22-2.71.12-5.41-.29-8.11-.53-3.5-1.57-6.83-3.19-9.98-.54-1.05-1.17-2.07-1.76-3.12-.23.14-.4.25-.57.36-.12.07-.23.15-.35.24.05.08.09.15.13.21,3.29,5.06,4.9,10.63,5.08,16.64.12,4.13-.48,8.18-1.56,12.15-.75,2.73-1.78,5.34-3.37,7.7-1.1,1.63-2.41,3.07-4.19,4-2.05,1.07-4.22.86-5.97-.59-1.39-1.16-2.26-2.67-2.9-4.33-1.12-2.87-1.5-5.88-1.54-8.94-.02-1.55.02-3.11.14-4.66.12-1.59.29-3.18.59-4.74.81-4.17,2.59-7.94,5.1-11.35,3.22-4.39,7.32-7.69,12.31-9.87,3.42-1.49,7.01-2.34,10.72-2.69,2.72-.26,5.36.07,7.92,1.02,4.37,1.61,7.8,4.46,10.51,8.19,3.68,5.07,5.39,10.81,5.66,17.02.11,2.63-.09,5.24-.49,7.85-.62,4.03-1.69,7.94-3.05,11.78-1.94,5.47-4.4,10.7-7.16,15.8-.13.25-.26.5-.39.75.32.18.6.33.9.5Zm-63.09,14.57c-.07-.15-.12-.28-.18-.4-2.66-5.4-5.13-10.87-7.32-16.47-3.05-7.81-5.56-15.79-7.08-24.05-.66-3.58-1.11-7.19-1.24-10.84-.14-3.92.04-7.82.81-11.67.7-3.54,1.82-6.93,3.68-10.04C11.35,7.01,17.61,3.26,25.77,2.64c2.43-.18,4.84.01,7.22.5,5.84,1.18,10.93,3.83,15.32,7.84.8.73,1.57,1.48,2.38,2.25.2-.13.48-.32.78-.52-.1-.12-.17-.21-.25-.29-1.26-1.41-2.63-2.71-4.12-3.87-5.33-4.15-11.32-6.58-18.1-6.98-3.11-.18-6.16.15-9.14,1.06-4.38,1.34-8.07,3.75-11.05,7.23-2.45,2.88-4.15,6.17-5.3,9.75-1.38,4.29-1.92,8.7-1.97,13.19-.04,3.54.24,7.06.74,10.57.48,3.37,1.16,6.7,1.98,10,1.23,4.96,2.78,9.83,4.56,14.63,2.42,6.55,5.24,12.92,8.31,19.19.13.26.26.53.4.81.33-.16.62-.31.93-.46Zm58.53-1.1c-.49-.25-.94-.47-1.39-.69-.66-.33-.91-.97-.62-1.57.29-.6.98-.79,1.65-.46.44.22.9.41,1.32.67.38.23.63.16.95-.11,1.2-1.02,1.92-2.25,1.9-3.87,0-.26-.07-.42-.33-.55-1.67-.81-3.34-1.65-5-2.48-.2-.1-.33-.09-.5.06-1.2,1.08-1.8,2.44-2,4.02-.04.31.02.51.34.61.12.04.23.11.34.17.56.32.76.95.48,1.52-.28.55-.92.77-1.51.52-.11-.05-.22-.1-.34-.15-.17.35-.34.67-.49,1-.05.11-.11.24-.1.36.03.63.03,1.27.14,1.89.31,1.71,1.32,2.88,2.93,3.57.74-1.5,1.48-2.98,2.23-4.49Zm-41,34.16c-.75,1.83-2.12,3.07-3.97,3.83.49,1.08.96,2.12,1.45,3.2.38-.2.73-.42,1.09-.58.25-.11.53-.21.79-.19.51.03.87.4.98.88.11.48-.07.94-.52,1.21-.44.27-.91.51-1.39.78.36.79.72,1.58,1.07,2.37.08,0,.12,0,.17,0,1.69-.22,3.18-.9,4.47-2.01.07-.06.09-.25.05-.35-.22-.52-.46-1.04-.69-1.55-.35-.78-.71-1.56-1.07-2.38-.06.13-.11.21-.15.3-.25.5-.71.73-1.24.64-.49-.08-.9-.49-.91-1.02,0-.27.1-.56.2-.83.5-1.48.72-2.93-.3-4.31Zm-10.18-23.62s.02-.08.02-.11c-.02-.21-.03-.43-.06-.64-.17-1.49-.76-2.77-1.86-3.81-.13-.12-.23-.13-.39-.06-1.74.79-3.49,1.58-5.23,2.37-.17.07-.23.16-.25.35-.16,1.85.67,3.22,2.06,4.32.07.05.22.06.31.02.34-.13.67-.29,1-.44,1.47-.67,2.94-1.33,4.41-1.99Zm.56,2.26c-1.58.72-3.16,1.43-4.76,2.15.7,1.54,1.38,3.05,2.07,4.58,1.27-.51,2.25-1.26,2.74-2.51.55-1.39.88-2.8-.05-4.21Zm42.14,4.3c-1.83-.83-3.14-2.13-3.82-3.96-1.22,1.55-1.23,3.24-.52,4.99.49,1.2,1.42,1.97,2.6,2.47.59-1.18,1.15-2.33,1.74-3.5Zm-39.02,15.27c.54,1.19,1.07,2.36,1.6,3.53,2.77-.88,4.32-4.63,2.38-7.38-1.16,2.15-1.3,2.29-3.98,3.86Zm33.69-4.53c-.88-.41-1.68-.91-2.35-1.58-.68-.68-1.16-1.49-1.52-2.43-.69,1.39-1.35,2.72-2.01,4.04,1.15,1.2,3.13,2.18,4.71,2.32.38-.77.77-1.55,1.17-2.35Zm6.71-25.32c-.21.43-.37.8-.58,1.14-.29.47-.37.97-.31,1.51.05.47.09.94.19,1.4.36,1.61,1.36,2.69,2.89,3.35.56-1.12,1.11-2.23,1.66-3.36-1.82-.83-3.12-2.12-3.85-4.03Zm-41.3,15.28c-.76,1.83-2.13,3.06-3.96,3.82.53,1.16,1.03,2.28,1.54,3.41,1.29-.51,2.28-1.32,2.79-2.61.63-1.59.73-3.16-.37-4.63Zm33.31.84c-.46.84-.9,1.62-.77,2.61.14,1.14.41,2.21,1.15,3.11.52.63,1.16,1.08,1.92,1.41.52-1.06,1.03-2.08,1.54-3.12-1.83-.83-3.13-2.13-3.84-4.02Zm-30.79,4.58c-.8,1.91-2.16,3.14-4,3.9.48,1.05.95,2.09,1.46,3.22.57-.38,1.13-.68,1.61-1.08,1.05-.89,1.45-2.11,1.57-3.43.04-.38.09-.79,0-1.14-.13-.48-.39-.92-.63-1.46Zm38.42-8.18c.52-1.04,1.02-2.05,1.53-3.08-1.82-.82-3.13-2.11-3.86-4.04-.25.5-.46.92-.67,1.35-.04.07-.06.16-.06.24-.04.87,0,1.74.28,2.57.45,1.42,1.41,2.36,2.79,2.94Zm8.3-25.48c.92.45,1.81.89,2.73,1.35.02-.32.07-.57.04-.81-.06-.47-.11-.96-.25-1.4-.16-.49-.49-.59-.97-.4-.64.25-1.09.73-1.54,1.26Zm-56.63,14.91c-.53-.47-1.06-.88-1.73-1.05-.42-.11-.59,0-.72.41-.19.57-.14,1.15-.04,1.76.83-.38,1.64-.74,2.48-1.12Z"/></g></svg>