<?xml version="1.0" encoding="UTF-8"?><svg id="Calque_2" xmlns="http://www.w3.org/2000/svg" viewBox="0 0 263.34 96.38"><g id="Calque_1-2"><g><path d="m0,.62h50.67v18.37h-26.36s0,3.74,0,3.74h19.16v13.62h-19.16s0,57.95,0,57.95H0S0,37.25,0,37.25h0v-15.42h0v-1.93h0V.62Z"/><path d="m28.21,94.3v-32.04s22.46,0,22.46,0v32.04s-22.46,0-22.46,0Z"/><path d="m77.34,22.77v54.06h7.93v-3.74h-3.96v-10.79h24.47c2.86,0,5.18,2.32,5.18,5.18v26.81h-41.98c-7.8,0-14.12-6.32-14.12-14.12V14.74c0-7.8,6.32-14.12,14.12-14.12h15.63s0,22.17,0,22.17l-7.28-.02Z"/><path d="m114.98,29.05h22.98s0,65.38,0,65.38h-22.98v-42.12h-4.01v6.27h-22.45V.75h22.45v36.14h4.01v-7.84Z"/><path d="m114.98.75h62.17v24.58h-13.12v69.1h-22.05V25.33h-26.99s0-24.58,0-24.58Z"/><polyline points="28.32 58.52 28.32 40.08 50.67 40.08 50.67 58.52"/></g><g><path d="m205.4,4.84v38.51l-4.84,4.84,4.84,4.84v38.51l-4.84,4.84h-14.45l-4.84-4.84V4.84l4.84-4.84h14.45l4.84,4.84Zm-9.27,40.93l4.43-4.37V6.79l-2.01-1.95h-10.48l-1.95,1.95v38.98h10.01Zm2.42,45.77l2.01-1.95v-34.61l-4.43-4.37h-10.01v38.98l1.95,1.95h10.48Z"/><path d="m234.37,4.84v86.7l-4.84,4.84h-14.45l-4.84-4.84V4.84l4.84-4.84h14.45l4.84,4.84Zm-6.86,86.7l2.02-1.95V6.79l-2.02-1.95h-10.48l-1.95,1.95v82.8l1.95,1.95h10.48Z"/><path d="m263.34,43.35l-4.84,4.84,4.84,4.84v43.35h-4.84v-41.4l-4.44-4.37h-5.65l-4.37,4.37v41.4h-4.84v-43.35l4.84-4.84-4.84-4.84V0h4.84v41.4l4.37,4.37h5.65l4.44-4.37V0h4.84v43.35Z"/></g></g></svg>