<?xml version="1.0" encoding="UTF-8"?><svg id="Calque_2" xmlns="http://www.w3.org/2000/svg" viewBox="0 0 464.45 474.73"><defs><style>.cls-1{fill:blue;}.cls-2{fill:#fff;}.cls-3{fill:#ffa96a;}</style></defs><g id="Calque_1-2"><rect class="cls-1" x="2.44" width="460.6" height="474.14"/><path class="cls-3" d="m86.61,0h-5.98l8.77,8.77,2.99-2.99-5.78-5.78Zm-23.82,0h-5.98l20.68,20.68,2.98-2.99L62.79,0Z"/><g><path class="cls-3" d="m50.95,0h-5.97l22.4,22.4v2.41l-6.47,6.47-2.45.04-21.37-21.37.04-5.44,4.51-4.51h-5.98l-1.52,1.52-5.44.05-1.57-1.57h-5.97l5.76,5.76h5.97v5.97l23.78,23.78h5.98l8.92-8.92v-5.97L50.95,0Z"/><path class="cls-2" d="m15.18,0h-5.98l40.29,40.29v2.4l-6.47,6.48-2.45.04L2.44,11.08v5.97l36.35,36.35h5.97l8.93-8.92v-5.98L15.18,0Z"/><path class="cls-3" d="m2.44,46.85v5.98l21.45,21.45,2.99-2.99L2.44,46.85Zm9.58-14.24h-5.98v-5.98l-3.6-3.6v16.17l2.4-2.4h5.39l25.57,25.57,2.99-2.99-26.77-26.77Z"/></g><g><path class="cls-3" d="m216.78,0l-3.91,3.92-2.45.04-3.96-3.96h-5.98l8.15,8.15h5.98l8.15-8.15h-5.98Z"/><path class="cls-3" d="m194.5,0h-5.97l17.12,17.12,2.98-2.99-14.13-14.13Zm-23.34.48v-.48h-4.19v2.26l26.76,26.77,2.99-2.99L171.16.48Z"/></g><g><path class="cls-3" d="m158.85,0h-5.97l3.69,3.69-6.18,6.19-5.44.04-9.92-9.92h-5.97l14.1,14.11h5.98v5.97l23.78,23.78h5.98l8.92-8.92v-5.97L158.85,0Zm24.78,33.16l-6.48,6.47-2.44.04-21.38-21.37.04-5.44,6.19-6.18,24.07,24.07v2.41Z"/><path class="cls-3" d="m123.08,0h-5.98l48.64,48.64v2.4l-6.47,6.48-2.45.04L105.69,6.43l.04-2.45,3.99-3.98h-5.98l-2.24,2.24v5.98l53.53,53.53h5.98l8.92-8.92v-5.98L123.08,0Z"/><path class="cls-3" d="m121.09,45.15h5.39l25.57,25.57,2.98-2.99-26.76-26.77h-5.98v-5.98l-26.77-26.76-2.99,2.98,25.57,25.57v5.39l-3.49,3.49-5.44.04-25.56-25.56-2.99,2.98,26.77,26.77h5.98v5.98l26.76,26.77,2.99-2.99-25.56-25.57.04-5.43,3.49-3.49Z"/></g><g><path class="cls-3" d="m80.68,29.03h-5.97l-8.92,8.92v5.98l23.78,23.78h5.97v5.97l23.78,23.78h5.98l8.92-8.92v-5.97l-53.54-53.54Zm10.67,34.49l-21.37-21.38.04-2.45,6.47-6.47h2.41l24.07,24.07-6.18,6.18-5.44.05Zm38.68,23.24l-6.48,6.47-2.44.04-21.38-21.37.04-5.44,6.19-6.18,24.07,24.07v2.41Z"/><path class="cls-3" d="m62.8,46.92h-5.98l-8.92,8.92v5.97l53.54,53.54h5.97l8.92-8.92v-5.98l-53.53-53.53Zm49.34,57.72l-6.47,6.48-2.45.04-51.13-51.13.04-2.45,6.48-6.47h2.4l51.13,51.13v2.4Z"/><path class="cls-3" d="m67.49,98.75h5.39l25.57,25.57,2.99-2.99-26.77-26.77h-5.98v-5.98l-26.77-26.77-2.99,2.99,25.57,25.57v5.39l-3.49,3.49-5.43.04-25.57-25.56-2.99,2.98,26.77,26.77h5.98v5.98l26.77,26.77,2.98-2.99-25.56-25.57.04-5.43,3.49-3.49Z"/></g><g><path class="cls-3" d="m267.6,0h-5.97l10.89,10.89-6.18,6.18-5.44.04L243.79,0h-5.98l21.3,21.3h5.98v5.98l23.78,23.78h5.98l8.92-8.92v-5.98L267.6,0Zm31.98,40.35l-6.48,6.48-2.44.04-21.38-21.37.04-5.44,6.19-6.18,24.07,24.07v2.4Z"/><path class="cls-3" d="m232.35.51h-5.98l-8.92,8.93v5.97l53.53,53.54h5.98l8.92-8.92v-5.98L232.35.51Zm49.34,57.73l-6.47,6.47-2.45.05-51.13-51.13.04-2.45,6.48-6.48h2.4l51.13,51.13v2.41Z"/><path class="cls-3" d="m237.04,52.35h5.39l25.57,25.56,2.98-2.98-26.76-26.77h-5.98v-5.98l-26.77-26.77-2.99,2.99,25.57,25.57v5.39l-3.49,3.49-5.44.04-25.56-25.57-2.99,2.99,26.77,26.77h5.98v5.98l26.76,26.76,2.99-2.98-25.56-25.57.04-5.44,3.49-3.48Z"/></g><g><path class="cls-3" d="m196.63,36.23h-5.97l-8.92,8.92v5.97l23.78,23.78h5.97v5.98l23.78,23.78h5.98l8.92-8.92v-5.98l-53.54-53.53Zm10.67,34.48l-21.37-21.37.04-2.45,6.47-6.47h2.41l24.07,24.07-6.18,6.18-5.44.04Zm38.68,23.24l-6.48,6.48-2.44.04-21.38-21.37.04-5.44,6.19-6.18,24.07,24.07v2.4Z"/><path class="cls-2" d="m178.75,54.11h-5.98l-8.92,8.93v5.97l53.53,53.54h5.98l8.92-8.93v-5.97l-53.53-53.54Zm49.34,57.73l-6.47,6.47-2.45.05-51.13-51.13.04-2.45,6.48-6.48h2.4l51.13,51.13v2.41Z"/><path class="cls-3" d="m183.44,105.95h5.39l25.57,25.56,2.98-2.99-26.76-26.76h-5.98v-5.98l-26.77-26.77-2.99,2.99,25.57,25.56v5.4l-3.49,3.48-5.43.05-25.57-25.57-2.99,2.99,26.77,26.77h5.98v5.97l26.77,26.77,2.98-2.98-25.56-25.57.04-5.44,3.49-3.48Z"/></g><g><path class="cls-3" d="m143.04,89.82h-5.98l-8.92,8.93v5.97l23.78,23.78h5.97v5.98l23.78,23.78h5.98l8.92-8.92v-5.98l-53.53-53.54Zm10.66,34.49l-21.37-21.37.04-2.45,6.47-6.47h2.41l24.07,24.07-6.18,6.18-5.44.04Zm38.68,23.24l-6.47,6.48-2.45.04-21.38-21.38.04-5.43,6.19-6.19,24.07,24.08v2.4Z"/><path class="cls-3" d="m125.15,107.71h-5.98l-8.92,8.92v5.98l53.54,53.54h5.97l8.93-8.93v-5.97l-53.54-53.54Zm49.34,57.73l-6.47,6.47-2.45.05-51.13-51.13.04-2.45,6.48-6.48h2.4l51.13,51.13v2.41Z"/><path class="cls-3" d="m129.84,159.55h5.39l25.57,25.56,2.99-2.99-26.77-26.77h-5.98v-5.97l-26.77-26.77-2.99,2.99,25.57,25.56v5.4l-3.49,3.48-5.43.05-25.57-25.57-2.99,2.99,26.77,26.77h5.98v5.97l26.77,26.77,2.98-2.99-25.56-25.56.04-5.44,3.49-3.48Z"/></g><g><path class="cls-3" d="m312.88,44.58h-5.97l-8.93,8.92v5.97l23.78,23.78h5.98v5.98l23.78,23.78h5.98l8.92-8.92v-5.98l-53.54-53.53Zm10.67,34.48l-21.38-21.37.05-2.45,6.47-6.47h2.41l24.07,24.07-6.19,6.18-5.43.04Zm38.68,23.24l-6.48,6.48-2.45.04-21.37-21.37.04-5.44,6.19-6.18,24.07,24.07v2.4Z"/><path class="cls-3" d="m295,62.46h-5.98l-8.92,8.93v5.97l53.53,53.54h5.98l8.92-8.92v-5.98l-53.53-53.54Zm49.34,57.73l-6.47,6.47-2.45.05-51.13-51.13.04-2.45,6.47-6.48h2.41l51.13,51.13v2.41Z"/><path class="cls-3" d="m299.68,114.3h5.4l25.56,25.56,2.99-2.99-26.77-26.76h-5.97v-5.98l-26.77-26.77-2.99,2.99,25.57,25.56v5.4l-3.49,3.49-5.44.04-25.56-25.57-2.99,2.99,26.77,26.77h5.97v5.98l26.77,26.76,2.99-2.98-25.56-25.57.04-5.44,3.48-3.48Z"/></g><g><path class="cls-3" d="m259.28,98.18h-5.97l-8.93,8.92v5.97l23.78,23.78h5.98v5.98l23.78,23.78h5.98l8.92-8.92v-5.98l-53.54-53.53Zm10.67,34.48l-21.37-21.37.04-2.45,6.47-6.47h2.41l24.07,24.07-6.19,6.18-5.43.04Zm38.68,23.24l-6.48,6.48-2.44.04-21.38-21.37.04-5.44,6.19-6.18,24.07,24.07v2.4Z"/><path class="cls-3" d="m241.4,116.06h-5.98l-8.92,8.93v5.97l53.53,53.54h5.98l8.92-8.93v-5.97l-53.53-53.54Zm49.34,57.73l-6.47,6.47-2.45.05-51.13-51.13.04-2.45,6.47-6.48h2.41l51.13,51.13v2.41Z"/><path class="cls-3" d="m246.09,167.9h5.39l25.57,25.56,2.98-2.99-26.77-26.76h-5.97v-5.98l-26.77-26.77-2.99,2.99,25.57,25.56v5.4l-3.49,3.48-5.44.05-25.56-25.57-2.99,2.99,26.77,26.77h5.98v5.97l26.76,26.77,2.99-2.98-25.56-25.57.04-5.44,3.49-3.48Z"/></g><g><path class="cls-3" d="m205.68,151.77h-5.97l-8.92,8.93v5.97l23.77,23.78h5.98v5.98l23.78,23.78h5.98l8.92-8.92v-5.98l-53.54-53.54Zm10.67,34.49l-21.37-21.37.04-2.45,6.47-6.47h2.41l24.07,24.07-6.18,6.18-5.44.04Zm38.68,23.24l-6.48,6.48-2.44.04-21.38-21.38.04-5.43,6.19-6.19,24.07,24.08v2.4Z"/><path class="cls-3" d="m187.8,169.66h-5.98l-8.92,8.92v5.98l53.53,53.54h5.98l8.92-8.93v-5.97l-53.53-53.54Zm49.34,57.73l-6.47,6.47-2.45.05-51.13-51.13.04-2.45,6.48-6.48h2.4l51.13,51.13v2.41Z"/><path class="cls-3" d="m192.49,221.5h5.39l25.57,25.56,2.98-2.99-26.76-26.77h-5.98v-5.97l-26.77-26.77-2.99,2.99,25.57,25.56v5.4l-3.49,3.48-5.44.05-25.56-25.57-2.99,2.99,26.77,26.77h5.98v5.97l26.76,26.77,2.99-2.99-25.56-25.56.04-5.44,3.49-3.48Z"/></g><g><path class="cls-2" d="m339.16,0h-5.98l2.11,2.11v2.41l-6.47,6.47-2.45.04-11.03-11.03h-5.98l15.22,15.22h5.98l8.92-8.92V.32l-.32-.32Z"/><path class="cls-3" d="m287.11,7.55l.04-5.44,2.11-2.11h-15.67l3.35,3.35h5.98v5.98l26.76,26.77,2.99-2.99-25.56-25.56Zm16.27-7.55h-5.97l24.19,24.19,2.98-2.99L303.38,0Z"/></g><g><path class="cls-3" d="m462.95,1.45l-2.45.04-1.49-1.49h-5.98l5.69,5.69h4.32V1.36l-.09.09Z"/><path class="cls-3" d="m447.06,0h-5.98l10.46,10.46v2.41l-6.47,6.47-2.45.04L423.24,0h-5.98l23.57,23.57h5.98l8.92-8.92v-5.98l-8.67-8.67Z"/><path class="cls-3" d="m406.88,6.97h5.4l25.56,25.57,2.99-2.99-26.77-26.77h-5.97V0h-4.19v3.98l-3.49,3.49-5.44.04-7.51-7.51h-5.98l11.71,11.71h5.97v5.97l26.77,26.77,2.99-2.99-25.56-25.56.04-5.44,3.48-3.49Z"/></g><g><path class="cls-3" d="m375.63,0h-5.97l19.11,19.11-6.19,6.19-5.43.04-21.38-21.38.05-2.44,1.52-1.52h-5.76v5.75l23.78,23.78h5.98v5.98l23.78,23.78h5.98l8.92-8.93v-5.97L375.63,0Zm40.2,48.58l-6.48,6.47-2.45.04-21.37-21.37.04-5.43,6.19-6.19,24.07,24.07v2.41Z"/><path class="cls-3" d="m348.59,8.74h-5.97l-8.92,8.92v5.98l53.53,53.53h5.98l8.92-8.92v-5.98l-53.54-53.53Zm49.35,57.73l-6.47,6.47-2.45.04-51.13-51.13.04-2.45,6.47-6.47h2.41l51.13,51.13v2.41Z"/><path class="cls-3" d="m353.28,60.57h5.4l25.56,25.57,2.99-2.99-26.77-26.77h-5.97v-5.98l-26.77-26.76-2.99,2.98,25.57,25.57v5.39l-3.49,3.49-5.44.04-25.56-25.56-2.99,2.99,26.77,26.76h5.97v5.98l26.77,26.77,2.99-2.99-25.56-25.56.04-5.44,3.48-3.49Z"/></g><g><path class="cls-3" d="m375.2,107.06h-5.98l-8.92,8.92v5.97l23.78,23.78h5.98v5.98l23.78,23.78h5.97l8.92-8.92v-5.98l-53.53-53.53Zm10.66,34.48l-21.37-21.37.04-2.45,6.48-6.47h2.4l24.07,24.07-6.18,6.18-5.44.04Zm38.68,23.24l-6.47,6.48-2.45.04-21.37-21.37.04-5.44,6.18-6.18,24.07,24.07v2.4Z"/><path class="cls-3" d="m357.31,124.94h-5.98l-8.92,8.93v5.97l53.54,53.54h5.97l8.93-8.92v-5.98l-53.54-53.54Zm49.35,57.73l-6.48,6.47-2.45.05-51.13-51.13.05-2.45,6.47-6.48h2.41l51.13,51.13v2.41Z"/><path class="cls-3" d="m362,176.78h5.4l25.56,25.56,2.99-2.99-26.77-26.76h-5.98v-5.98l-26.76-26.77-2.99,2.99,25.56,25.56v5.4l-3.48,3.48-5.44.05-25.57-25.57-2.98,2.99,26.76,26.77h5.98v5.98l26.77,26.76,2.99-2.98-25.57-25.57.04-5.44,3.49-3.48Z"/></g><g><path class="cls-2" d="m321.6,160.65h-5.98l-8.92,8.93v5.97l23.78,23.78h5.98v5.98l23.78,23.78h5.97l8.93-8.92v-5.98l-53.54-53.54Zm10.66,34.49l-21.37-21.37.04-2.45,6.48-6.47h2.4l24.07,24.07-6.18,6.18-5.44.04Zm38.68,23.24l-6.47,6.48-2.45.04-21.37-21.37.04-5.44,6.18-6.19,24.07,24.08v2.4Z"/><path class="cls-3" d="m303.71,178.54h-5.97l-8.93,8.92v5.98l53.54,53.54h5.98l8.92-8.93v-5.97l-53.54-53.54Zm49.35,57.73l-6.48,6.47-2.45.05-51.13-51.13.05-2.45,6.47-6.48h2.41l51.13,51.13v2.41Z"/><path class="cls-3" d="m308.4,230.38h5.4l25.56,25.56,2.99-2.99-26.77-26.77h-5.98v-5.97l-26.76-26.77-2.99,2.99,25.56,25.56v5.4l-3.48,3.48-5.44.05-25.57-25.57-2.98,2.99,26.76,26.77h5.98v5.97l26.77,26.77,2.99-2.98-25.57-25.57.04-5.44,3.49-3.48Z"/></g><g><path class="cls-3" d="m268,214.25h-5.98l-8.92,8.93v5.97l23.78,23.78h5.98v5.98l23.78,23.78h5.97l8.93-8.92v-5.98l-53.54-53.54Zm10.67,34.49l-21.38-21.37.04-2.45,6.48-6.47h2.4l24.07,24.07-6.18,6.18-5.43.04Zm38.67,23.24l-6.47,6.48-2.45.04-21.37-21.38.04-5.43,6.18-6.19,24.07,24.07v2.41Z"/><path class="cls-3" d="m250.11,232.14h-5.97l-8.93,8.92v5.98l53.54,53.54h5.98l8.92-8.93v-5.97l-53.54-53.54Zm49.35,57.73l-6.48,6.47-2.45.04-51.13-51.12.05-2.45,6.47-6.48h2.41l51.13,51.13v2.41Z"/><path class="cls-3" d="m254.8,283.98h5.4l25.56,25.56,2.99-2.99-26.77-26.77h-5.98v-5.97l-26.76-26.77-2.99,2.99,25.56,25.56v5.4l-3.48,3.48-5.44.05-25.56-25.57-2.99,2.99,26.77,26.77h5.97v5.97l26.77,26.77,2.99-2.99-25.57-25.56.05-5.44,3.48-3.48Z"/></g><g><path class="cls-3" d="m463.04,200.34v-6.14l-25.19-25.19h-5.98l-8.92,8.92v5.97l23.78,23.78h5.97v5.98l10.34,10.34v-5.98l-6.14-6.14.04-5.44,6.1-6.1Zm-9.09,3.11l-5.44.04-21.37-21.37.04-2.45,6.47-6.47h2.41l24.07,24.07-6.18,6.18Z"/><path class="cls-3" d="m415.77,191.08h2.4l44.87,44.87v-5.98l-43.08-43.08h-5.98l-8.92,8.93v5.97l53.54,53.54h4.44v-4.45l-.21.21-2.45.05-51.13-51.13.04-2.45,6.48-6.48Z"/><path class="cls-3" d="m424.65,238.73h5.39l25.57,25.56,2.99-2.99-26.77-26.76h-5.98v-5.98l-26.77-26.77-2.98,2.99,25.56,25.56v5.4l-3.49,3.48-5.43.05-25.57-25.57-2.99,2.99,26.77,26.77h5.98v5.98l26.77,26.76,2.99-2.98-25.57-25.57.04-5.44,3.49-3.48Z"/></g><g><path class="cls-3" d="m384.25,222.6h-5.98l-8.92,8.93v5.97l23.78,23.78h5.97v5.98l23.79,23.78h5.97l8.92-8.92v-5.98l-53.53-53.54Zm10.66,34.49l-21.37-21.37.04-2.45,6.47-6.47h2.41l24.07,24.07-6.18,6.18-5.44.04Zm38.68,23.24l-6.47,6.48-2.45.04-21.37-21.37.04-5.44,6.18-6.19,24.07,24.08v2.4Z"/><path class="cls-3" d="m366.36,240.49h-5.98l-8.92,8.92v5.98l53.54,53.54h5.97l8.93-8.93v-5.97l-53.54-53.54Zm42.87,64.2l-2.45.05-51.13-51.13.04-2.45,6.48-6.48h2.41l51.12,51.13v2.41s-6.47,6.47-6.47,6.47Z"/><path class="cls-3" d="m371.05,292.33h5.39l25.57,25.56,2.99-2.99-26.77-26.77h-5.98v-5.97l-26.77-26.77-2.98,2.99,25.56,25.56v5.4l-3.48,3.48-5.44.05-25.57-25.57-2.98,2.99,26.76,26.77h5.98v5.97l26.77,26.77,2.99-2.99-25.57-25.56.04-5.44,3.49-3.48Z"/></g><g><path class="cls-3" d="m330.65,276.2h-5.98l-8.92,8.93v5.97l23.78,23.78h5.98v5.98l23.78,23.78h5.97l8.92-8.92v-5.98l-53.53-53.54Zm10.66,34.49l-21.37-21.37.04-2.45,6.48-6.47h2.4l24.07,24.07-6.18,6.18-5.44.04Zm38.68,23.24l-6.47,6.48-2.45.04-21.37-21.38.04-5.43,6.18-6.19,24.07,24.07v2.41Z"/><path class="cls-3" d="m312.76,294.09h-5.98l-8.92,8.92v5.98l53.54,53.54h5.97l8.93-8.93v-5.97l-53.54-53.54Zm49.35,57.73l-6.48,6.47-2.45.04-51.13-51.13.05-2.44,6.47-6.48h2.41l51.13,51.13v2.41Z"/><path class="cls-3" d="m317.45,345.93h5.4l25.56,25.56,2.99-2.99-26.77-26.77h-5.98v-5.97l-26.76-26.77-2.99,2.99,25.56,25.56v5.4l-3.48,3.48-5.44.05-25.57-25.57-2.98,2.99,26.76,26.77h5.98v5.97l26.77,26.77,2.99-2.99-25.57-25.56.04-5.44,3.49-3.48Z"/></g><path class="cls-3" d="m449.52,274.5l-2.98,2.99,16.5,16.5v-5.98l-13.52-13.51Zm11.91-11.91l-2.98,2.99,4.59,4.59v-5.97l-1.61-1.61Z"/><g><path class="cls-3" d="m442.41,287.59h2.4l18.23,18.23v-5.98l-16.44-16.44h-5.98l-8.92,8.92v5.98l23.78,23.78h5.97v5.98l1.59,1.59v-12.14l-.34.34-5.44.04-21.37-21.38.04-2.44,6.48-6.48Z"/><path class="cls-2" d="m424.52,305.48h2.41l36.11,36.11v-5.98l-34.33-34.32h-5.98l-8.92,8.92v5.98l49.23,49.22v-5.97l-45.04-45.04.05-2.45,6.47-6.47Z"/><path class="cls-3" d="m433.4,353.12h5.4l24.24,24.25v-5.98l-22.46-22.46h-5.98v-5.98l-26.76-26.76-2.99,2.98,25.56,25.57v5.39l-3.48,3.49-5.44.04-25.57-25.56-2.98,2.99,26.76,26.76h5.98v5.98l26.77,26.77,2.99-2.99-25.57-25.56.04-5.44,3.49-3.49Z"/></g><g><path class="cls-3" d="m393,337h-5.98l-8.92,8.92v5.98l23.78,23.78h5.98v5.97l23.78,23.79h5.97l8.93-8.93v-5.97l-53.54-53.54Zm10.66,34.49l-21.37-21.38.04-2.44,6.48-6.48h2.4l24.07,24.07-6.18,6.19-5.44.04Zm38.68,23.24l-6.47,6.47-2.45.04-21.37-21.37.04-5.44,6.18-6.18,24.07,24.07v2.41Z"/><path class="cls-3" d="m375.11,354.89h-5.97l-8.93,8.92v5.98l53.54,53.53h5.98l8.92-8.92v-5.98l-53.54-53.53Zm49.35,57.72l-6.48,6.48-2.45.04-51.13-51.13.05-2.45,6.47-6.47h2.41l51.13,51.13v2.4Z"/><path class="cls-3" d="m379.8,406.72h5.4l25.56,25.57,2.99-2.99-26.77-26.77h-5.98v-5.98l-26.76-26.76-2.99,2.98,25.56,25.57v5.39l-3.48,3.49-5.44.04-25.57-25.56-2.98,2.99,26.76,26.76h5.98v5.98l26.77,26.77,2.99-2.99-25.57-25.56.04-5.44,3.49-3.49Z"/></g><path class="cls-3" d="m458.57,390.05l-2.99,2.99,7.46,7.46v-5.98l-4.47-4.47Z"/><g><path class="cls-3" d="m451.45,403.14h2.41l9.18,9.18v-5.98l-7.39-7.39h-5.98l-8.92,8.92v5.98l22.29,22.29v-5.97l-18.1-18.11.04-2.44,6.47-6.48Z"/><path class="cls-3" d="m433.57,421.03h2.41l27.06,27.07v-5.98l-25.28-25.28h-5.98l-8.92,8.92v5.98l40.18,40.17v-5.97l-35.99-35.99.04-2.45,6.48-6.47Z"/><path class="cls-3" d="m449.63,464.48h-5.98v-5.98l-26.77-26.76-2.98,2.98,25.56,25.57v5.39l-3.48,3.49-5.44.04-25.57-25.56-2.98,2.99,26.76,26.76h5.98v.74h4.22v-1.98s3.5-3.49,3.5-3.49h5.39l5.47,5.47h5.98l-9.66-9.66Z"/></g><g><path class="cls-3" d="m460.32,21.81h2.4l.32.32v-4.51h-4.51l-8.92,8.92v5.98l13.43,13.43v-5.98l-9.24-9.24.04-2.45,6.48-6.47Z"/><path class="cls-3" d="m462.72,69.95l-5.43.04-25.57-25.56-2.99,2.99,26.77,26.76h5.98v5.98l1.56,1.56v-12.09l-.32.32Zm-19.09-37.43l-2.98,2.99,22.39,22.39v-5.97l-19.41-19.41Z"/></g><g><path class="cls-2" d="m454.07,84.58l8.97,8.97v-5.97l-34.24-34.25h-5.98l-8.92,8.92v5.98l23.78,23.78h5.97v5.97l19.39,19.4v-5.99l-15.19-15.19.04-5.44,6.18-6.18Zm-9.17,3.2l-5.44.04-21.37-21.38.04-2.44,6.47-6.48h2.41l24.07,24.07-6.18,6.19Z"/><path class="cls-3" d="m463.04,123.34l-52.13-52.12h-5.98l-8.92,8.92v5.98l53.54,53.53h5.97l7.52-7.51,1.41-1.41v-5.98l-1.41-1.41Zm-9.26,12.08l-2.45.04-51.13-51.13.04-2.45,6.48-6.47h2.41l51.12,51.13v2.41s-6.47,6.47-6.47,6.47Z"/><path class="cls-3" d="m415.6,123.05h5.39l25.57,25.57,2.99-2.99-26.77-26.77h-5.98v-5.98l-26.77-26.76-2.98,2.98,25.56,25.57v5.39l-3.48,3.49-5.44.04-25.57-25.56-2.98,2.99,26.76,26.76h5.98v5.98l26.77,26.77,2.99-2.99-25.57-25.56.04-5.44,3.49-3.49Z"/></g><g><path class="cls-3" d="m463.04,143.68v-5.97l-4.38,4.38v5.98l4.38,4.38v-5.98l-.19-.19.04-2.45.15-.15Z"/><path class="cls-3" d="m440.77,159.98l-2.99,2.99,25.26,25.25v-5.98l-22.27-22.26Zm11.91-11.91l-2.99,2.98,13.35,13.35v-5.97l-10.36-10.36Z"/></g><g><path class="cls-3" d="m2.44,378.32v5.97l8.08,8.08-6.18,6.19h-1.9v4.23h.65v5.97l23.78,23.79h5.98l8.92-8.93v-5.97L2.44,378.32Zm35.14,43.52l-6.48,6.47-2.44.04-21.38-21.37.04-5.44,6.19-6.18,24.07,24.07v2.41Z"/><path class="cls-3" d="m2.44,414.09v5.98l17.25,17.25v2.4l-6.47,6.48-2.45.04-8.33-8.33v5.98l6.54,6.54h5.98l8.92-8.92v-5.98l-21.44-21.44Z"/><path class="cls-3" d="m2.44,449.87v5.97l3.56,3.56,2.98-2.99-6.54-6.54Z"/></g><g><path class="cls-3" d="m24.03,80.44h-5.97l-8.93,8.92v5.98l23.78,23.78h5.98v5.98l23.78,23.78h5.98l8.92-8.93v-5.97l-53.54-53.54Zm10.67,34.49l-21.38-21.38.05-2.44,6.47-6.48h2.41l24.07,24.07-6.19,6.19-5.43.04Zm38.68,23.24l-6.48,6.47-2.45.04-21.37-21.37.04-5.44,6.19-6.18,24.07,24.07v2.41Z"/><path class="cls-3" d="m6.15,98.33h-3.71v4.19h1.92l51.13,51.13v2.41l-6.47,6.47-2.45.04L2.44,118.44v5.98l42.34,42.34h5.98l8.92-8.92v-5.98L6.15,98.33Z"/><path class="cls-3" d="m10.83,150.16h5.4l25.56,25.57,2.99-2.99-26.77-26.77h-5.97v-5.98l-9.6-9.6v5.98l5.41,5.41v5.39l-3.49,3.49h-1.92v4.23h.67v5.98l26.77,26.77,2.99-2.99-25.56-25.56.04-5.44,3.48-3.49Z"/></g><g><path class="cls-2" d="m2.44,166.05v5.97l17.34,17.34v2.41l-6.48,6.47-2.44.04-8.42-8.42v5.98l6.63,6.63h5.98l8.92-8.92v-5.97l-21.53-21.53Z"/><path class="cls-3" d="m2.44,201.82v13.26l3.64-3.64v-5.98l-3.64-3.64Z"/></g><g><path class="cls-3" d="m86.38,141.24h-5.97l-8.93,8.92v5.97l23.78,23.78h5.98v5.98l23.78,23.78h5.98l8.92-8.92v-5.98l-53.54-53.53Zm10.67,34.48l-21.37-21.37.04-2.45,6.47-6.47h2.41l24.07,24.07-6.19,6.18-5.43.04Zm38.68,23.25l-6.48,6.47-2.45.04-21.37-21.37.04-5.44,6.19-6.18,24.07,24.07v2.41Z"/><path class="cls-3" d="m68.5,159.12h-5.98l-8.92,8.93v5.97l53.53,53.54h5.98l8.92-8.92v-5.98l-53.53-53.54Zm49.34,57.73l-6.47,6.48-2.45.04-51.13-51.13.04-2.45,6.47-6.48h2.41l51.13,51.13v2.41Z"/><path class="cls-3" d="m73.19,210.96h5.39l25.57,25.56,2.98-2.98-26.77-26.77h-5.97v-5.98l-26.77-26.77-2.99,2.99,25.57,25.57v5.39l-3.49,3.49-5.44.04-25.56-25.57-2.99,2.99,26.77,26.77h5.98v5.98l26.76,26.76,2.99-2.98-25.56-25.57.04-5.44,3.49-3.48Z"/></g><g><path class="cls-3" d="m32.78,194.84h-5.97l-8.93,8.92v5.97l23.78,23.78h5.98v5.98l23.78,23.78h5.98l8.92-8.92v-5.98l-53.54-53.53Zm10.67,34.48l-21.37-21.37.04-2.45,6.47-6.47h2.41l24.07,24.07-6.18,6.18-5.44.04Zm38.68,23.24l-6.48,6.48-2.44.04-21.38-21.37.04-5.44,6.19-6.18,24.07,24.07v2.4Z"/><path class="cls-3" d="m14.9,212.72h-5.98l-6.48,6.49-2.44,2.44v5.97l2.44,2.44,51.09,51.1h5.98l8.92-8.92v-5.98l-53.53-53.54Zm49.34,57.73l-6.47,6.47-2.45.05L4.19,225.84l.04-2.45,6.48-6.48h2.4l51.13,51.13v2.41Z"/><path class="cls-3" d="m19.59,264.56h5.39l25.57,25.56,2.98-2.99-26.76-26.76h-5.98v-5.98l-18.35-18.35v5.98l14.16,14.15v5.4l-3.49,3.49-5.44.04-5.23-5.23v5.97l3.45,3.45h5.98v5.98l26.76,26.76,2.99-2.98-25.56-25.57.04-5.44,3.49-3.48Z"/></g><g><path class="cls-3" d="m2.44,271.69v10.01l2.02-2.02,24.07,24.08v2.4l-6.48,6.48-2.44.04-17.17-17.16v5.97l15.38,15.38h5.98l8.92-8.92v-5.98l-30.28-30.28Z"/><path class="cls-3" d="m2.44,307.47v5.97l8.2,8.2v2.41l-6.47,6.47-1.73.04v4.2h3.47l8.92-8.93v-5.97l-12.39-12.39Z"/></g><g><path class="cls-3" d="m149.03,203.19h-5.97l-8.93,8.92v5.97l23.78,23.78h5.98v5.98l23.78,23.78h5.98l8.92-8.92v-5.98l-53.54-53.53Zm10.67,34.48l-21.38-21.37.04-2.45,6.48-6.47h2.41l24.07,24.07-6.19,6.18-5.43.04Zm38.68,23.25l-6.48,6.47-2.45.04-21.37-21.37.04-5.44,6.19-6.18,24.07,24.07v2.41Z"/><path class="cls-3" d="m131.14,221.07h-5.97l-8.92,8.93v5.97l53.53,53.54h5.98l8.92-8.92v-5.98l-53.54-53.54Zm49.35,57.73l-6.47,6.48-2.45.04-51.13-51.13.04-2.45,6.47-6.48h2.41l51.13,51.13v2.41Z"/><path class="cls-2" d="m135.83,272.91h5.4l25.56,25.56,2.99-2.98-26.77-26.77h-5.97v-5.98l-26.77-26.77-2.99,2.99,25.57,25.57v5.39l-3.49,3.49-5.44.04-25.56-25.57-2.99,2.99,26.77,26.77h5.97v5.98l26.77,26.76,2.99-2.98-25.56-25.57.04-5.44,3.48-3.48Z"/></g><g><path class="cls-3" d="m95.43,256.79h-5.97l-8.93,8.92v5.97l23.78,23.78h5.98v5.98l23.78,23.78h5.98l8.92-8.92v-5.98l-53.54-53.53Zm10.67,34.48l-21.38-21.37.05-2.45,6.47-6.47h2.41l24.07,24.07-6.19,6.18-5.43.04Zm38.68,23.24l-6.48,6.48-2.45.04-21.37-21.37.04-5.44,6.19-6.18,24.07,24.07v2.4Z"/><path class="cls-3" d="m77.55,274.67h-5.98l-8.92,8.93v5.97l53.53,53.54h5.98l8.92-8.92v-5.98l-53.53-53.54Zm49.34,57.73l-6.47,6.47-2.45.05-51.13-51.13.04-2.45,6.47-6.48h2.41l51.13,51.13v2.41Z"/><path class="cls-3" d="m82.23,326.51h5.4l25.56,25.56,2.99-2.99-26.77-26.76h-5.97v-5.98l-26.77-26.77-2.99,2.99,25.57,25.56v5.4l-3.49,3.48-5.44.05-25.56-25.57-2.99,2.99,26.77,26.77h5.97v5.98l26.77,26.76,2.99-2.98-25.56-25.57.04-5.44,3.48-3.48Z"/></g><g><path class="cls-3" d="m41.83,310.38h-5.97l-8.93,8.93v5.97l23.78,23.78h5.98v5.98l23.78,23.78h5.98l8.92-8.92v-5.98l-53.54-53.54Zm10.67,34.49l-21.37-21.37.04-2.45,6.47-6.47h2.41l24.07,24.07-6.19,6.18-5.43.04Zm38.68,23.24l-6.48,6.48-2.44.04-21.38-21.37.04-5.44,6.19-6.19,24.07,24.08v2.4Z"/><path class="cls-3" d="m23.95,328.27h-5.98l-8.92,8.92v5.98l53.53,53.54h5.98l8.92-8.93v-5.97l-53.53-53.54Zm49.34,57.73l-6.47,6.47-2.45.05-51.13-51.13.04-2.45,6.47-6.48h2.41l51.13,51.13v2.41Z"/><path class="cls-3" d="m28.64,380.11h5.39l25.57,25.56,2.98-2.99-26.77-26.77h-5.97v-5.97l-26.77-26.77-.63.63v4.72l23.21,23.2v5.4l-3.49,3.48-5.44.05-14.28-14.29v5.98l12.5,12.5h5.98v5.97l26.76,26.77,2.99-2.98-25.56-25.57.04-5.44,3.49-3.48Z"/></g><g><path class="cls-3" d="m50.55,426.59h-5.98l-8.92,8.92v5.98l23.78,23.78h5.98v5.97l2.9,2.9h5.97l-4.68-4.68.04-5.44,6.18-6.18,16.3,16.3h5.98l-47.55-47.55Zm16.1,34.45l-5.43.04-21.38-21.38.04-2.44,6.48-6.48h2.4l24.07,24.07-6.18,6.19Z"/><path class="cls-3" d="m28.47,448.67h2.41l25.47,25.47h5.98l-29.67-29.66h-5.97l-8.93,8.92v5.98l14.76,14.76h5.98l-16.55-16.55.05-2.45,6.47-6.47Z"/><path class="cls-3" d="m2.44,473.85v.29h.29l-.29-.29Zm9.35-14.47l-2.99,2.98,11.78,11.78h5.97l-14.76-14.76Z"/></g><g><path class="cls-3" d="m211.35,265.67h-5.98l-8.92,8.92v5.97l23.78,23.78h5.97v5.98l23.78,23.78h5.98l8.92-8.92v-5.98l-53.53-53.53Zm10.66,34.48l-21.37-21.37.04-2.45,6.47-6.47h2.41l24.07,24.07-6.18,6.18-5.44.04Zm38.68,23.24l-6.47,6.48-2.45.04-21.37-21.37.04-5.44,6.18-6.18,24.07,24.07v2.4Z"/><path class="cls-3" d="m193.46,283.55h-5.98l-8.92,8.93v5.97l53.54,53.54h5.97l8.93-8.92v-5.98l-53.54-53.54Zm42.87,64.2l-2.45.05-51.13-51.13.04-2.45,6.48-6.48h2.4l51.13,51.13v2.41s-6.47,6.47-6.47,6.47Z"/><path class="cls-3" d="m198.15,335.39h5.39l25.57,25.56,2.99-2.99-26.77-26.76h-5.98v-5.98l-26.77-26.77-2.98,2.99,25.56,25.56v5.4l-3.49,3.49-5.43.04-25.57-25.57-2.99,2.99,26.77,26.77h5.98v5.98l26.77,26.76,2.99-2.98-25.57-25.57.04-5.44,3.49-3.48Z"/></g><g><path class="cls-3" d="m157.75,319.27h-5.98l-8.92,8.92v5.97l23.78,23.78h5.97v5.98l23.79,23.78h5.97l8.92-8.92v-5.98l-53.53-53.53Zm10.66,34.48l-21.37-21.37.04-2.45,6.48-6.47h2.4l24.07,24.07-6.18,6.18-5.44.04Zm38.68,23.24l-6.47,6.48-2.45.04-21.37-21.37.04-5.44,6.18-6.18,24.07,24.07v2.4Z"/><path class="cls-3" d="m139.86,337.15h-5.98l-8.92,8.92v5.98l53.54,53.54h5.97l8.93-8.93v-5.97l-53.54-53.54Zm49.35,57.73l-6.48,6.47-2.45.05-51.13-51.13.05-2.45,6.47-6.48h2.41l51.13,51.13v2.41Z"/><path class="cls-3" d="m144.55,388.99h5.4l25.56,25.56,2.99-2.99-26.77-26.76h-5.98v-5.98l-26.76-26.77-2.99,2.99,25.56,25.56v5.4l-3.48,3.48-5.44.05-25.57-25.57-2.98,2.99,26.76,26.77h5.98v5.97l26.77,26.77,2.99-2.98-25.57-25.57.04-5.44,3.49-3.48Z"/></g><g><path class="cls-3" d="m104.15,372.86h-5.98l-8.92,8.93v5.97l23.78,23.78h5.98v5.98l23.78,23.78h5.97l8.92-8.92v-5.98l-53.53-53.54Zm10.66,34.49l-21.37-21.37.04-2.45,6.48-6.47h2.4l24.07,24.07-6.18,6.18-5.44.04Zm38.68,23.24l-6.47,6.48-2.45.04-21.37-21.38.04-5.43,6.18-6.19,24.07,24.08v2.4Z"/><path class="cls-3" d="m86.26,390.75h-5.97l-8.93,8.92v5.98l53.54,53.54h5.98l8.92-8.93v-5.97l-53.54-53.54Zm49.35,57.73l-6.48,6.47-2.45.05-51.13-51.13.05-2.45,6.47-6.48h2.41l51.13,51.13v2.41Z"/><path class="cls-2" d="m90.95,442.59h5.4l25.56,25.56,2.99-2.99-26.77-26.77h-5.98v-5.97l-26.76-26.77-2.99,2.99,25.56,25.56v5.4l-3.48,3.48-5.44.05-25.57-25.57-2.98,2.99,26.76,26.77h5.98v5.97l20.85,20.85h5.98l-22.64-22.63.04-5.44,3.49-3.48Z"/></g><g><path class="cls-3" d="m274,327.62h-5.98l-8.92,8.92v5.97l23.78,23.78h5.97v5.98l23.78,23.78h5.98l8.92-8.92v-5.98l-53.53-53.53Zm10.66,34.48l-21.37-21.37.04-2.45,6.47-6.47h2.41l24.07,24.07-6.18,6.18-5.44.04Zm38.68,23.24l-6.47,6.48-2.45.04-21.38-21.37.05-5.44,6.18-6.18,24.07,24.07v2.4Z"/><path class="cls-2" d="m256.11,345.5h-5.98l-8.92,8.93v5.97l53.54,53.54h5.97l8.93-8.92v-5.98l-53.54-53.54Zm49.34,57.73l-6.47,6.47-2.45.05-51.13-51.13.04-2.45,6.48-6.48h2.4l51.13,51.13v2.41Z"/><path class="cls-3" d="m260.8,397.34h5.39l25.57,25.56,2.99-2.99-26.77-26.76h-5.98v-5.98l-26.77-26.77-2.99,2.99,25.57,25.56v5.4l-3.49,3.49-5.43.04-25.57-25.57-2.99,2.99,26.77,26.77h5.98v5.98l26.77,26.76,2.98-2.98-25.56-25.57.04-5.44,3.49-3.48Z"/></g><g><path class="cls-3" d="m220.4,381.21h-5.98l-8.92,8.93v5.97l23.78,23.78h5.97v5.98l23.78,23.78h5.98l8.92-8.92v-5.98l-53.53-53.54Zm10.66,34.49l-21.37-21.37.04-2.45,6.47-6.47h2.41l24.07,24.07-6.18,6.18-5.44.04Zm38.68,23.24l-6.47,6.48-2.45.04-21.37-21.37.04-5.44,6.18-6.18,24.07,24.07v2.4Z"/><path class="cls-3" d="m202.51,399.1h-5.98l-8.92,8.92v5.98l53.54,53.54h5.97l8.93-8.93v-5.97l-53.54-53.54Zm49.34,57.73l-6.47,6.47-2.45.05-51.13-51.13.04-2.45,6.48-6.48h2.4l51.13,51.13v2.41Z"/><path class="cls-3" d="m214.38,446.75h-5.98v-5.98l-26.77-26.77-2.98,2.99,25.56,25.56v5.4l-3.49,3.48-5.43.05-25.57-25.57-2.99,2.99,26.77,26.77h5.98v5.97l12.5,12.5h5.97l-14.28-14.28.04-5.44,3.49-3.48h5.39l23.21,23.2h4.72l.63-.63-26.77-26.76Z"/></g><g><path class="cls-3" d="m166.8,434.81h-5.98l-8.92,8.93v5.97l23.78,23.78h5.97v.65h4.23v-1.89s6.19-6.19,6.19-6.19l8.08,8.08h5.97l-39.32-39.33Zm16.1,34.45l-5.44.04-21.37-21.37.04-2.45,6.47-6.47h2.41l24.07,24.07-6.18,6.18Z"/><path class="cls-3" d="m148.91,452.7h-5.98l-8.92,8.92v5.98l6.54,6.54h5.97l-8.32-8.32.04-2.45,6.48-6.48h2.41l17.25,17.25h5.97l-21.44-21.44Z"/><path class="cls-3" d="m128.03,467.6l-2.98,2.99,3.55,3.55h5.97l-6.54-6.54Z"/></g><g><path class="cls-3" d="m336.35,388.41h-5.98l-8.92,8.92v5.98l23.78,23.78h5.97v5.98l23.78,23.78h5.98l8.92-8.93v-5.97l-53.53-53.54Zm10.66,34.49l-21.37-21.37.04-2.45,6.47-6.48h2.41l24.07,24.07-6.18,6.19-5.44.04Zm38.68,23.24l-6.47,6.47-2.45.04-21.37-21.37.04-5.43,6.18-6.19,24.07,24.07v2.41Z"/><path class="cls-3" d="m318.46,406.3h-5.98l-8.92,8.92v5.98l52.95,52.94.59.59h5.97l.59-.59,8.34-8.33v-5.97l-53.54-53.54Zm49.34,57.73l-6.47,6.47-2.45.04-51.13-51.13.04-2.45,6.48-6.47h2.4l51.13,51.13v2.41Z"/><path class="cls-3" d="m330.33,453.94h-5.98v-5.97l-26.77-26.77-2.98,2.99,25.56,25.56v5.39l-3.49,3.49-5.43.04-25.57-25.56-2.99,2.99,26.77,26.77h5.98v5.97l5.3,5.3h5.97l-7.08-7.08.04-5.44,3.49-3.49h5.39l16.01,16.01h5.98l-20.2-20.2Z"/></g><g><path class="cls-3" d="m282.75,442.01h-5.98l-8.92,8.92v5.98l17.23,17.23h5.97l-19.01-19.02.04-2.44,6.47-6.48h2.41l24.07,24.07-3.86,3.87h5.97l.88-.88.88.88h5.97l-32.12-32.13Z"/><path class="cls-3" d="m264.86,459.9h-5.98l-8.92,8.92v5.32h5.32l-1.13-1.13.04-2.45,6.48-6.47h2.4l10.05,10.05h5.98l-14.24-14.24Z"/></g><g><path class="cls-3" d="m394.8,454.55h2.41l19.59,19.59h5.97l-23.78-23.78h-5.97l-8.92,8.92v5.98l8.88,8.88h5.97l-10.66-10.66.04-2.45,6.47-6.48Z"/><path class="cls-3" d="m381.11,468.25h-5.98l-5.89,5.89h5.98l1.7-1.7h2.4l1.7,1.7h5.98l-5.89-5.89Z"/></g></g></svg>