<?xml version="1.0" encoding="UTF-8"?><svg id="Calque_2" xmlns="http://www.w3.org/2000/svg" viewBox="0 0 141.33 151.93"><defs><style>.cls-1{fill:#fff;}.cls-2{fill:#fff;}</style></defs><g id="Calque_1-2"><path class="cls-1" d="m0,0h40.42v14.66h-21.03s0,2.98,0,2.98h15.29v10.86h-15.29s0,46.23,0,46.23H0S0,29.22,0,29.22h0v-12.3h0v-1.54h0V0Z"/><path class="cls-1" d="m22.5,74.74v-25.56s17.92,0,17.92,0v25.56s-17.92,0-17.92,0Z"/><path class="cls-1" d="m61.7,17.68v43.13h6.33v-2.98h-3.16v-8.6h19.52c2.28,0,4.13,1.85,4.13,4.13v21.39h-33.49c-6.22,0-11.27-5.04-11.27-11.27V11.27C43.77,5.05,48.82,0,55.04,0h12.47s0,17.69,0,17.69h-5.81Z"/><path class="cls-1" d="m91.73,22.68h18.33s0,52.16,0,52.16h-18.33v-33.6h-3.2v5h-17.91V.11h17.91v28.83h3.2v-6.26Z"/><path class="cls-1" d="m91.73.11h49.6v19.61h-10.47v55.13h-17.59V19.72h-21.54S91.73.11,91.73.11Z"/><polyline class="cls-1" points="22.59 46.2 22.59 31.48 40.42 31.48 40.42 46.2"/><path class="cls-2" d="m0,151.93h40.42v-14.66h-21.03s0-2.98,0-2.98h15.29v-10.86h-15.29s0-46.23,0-46.23H0S0,122.71,0,122.71h0v12.3h0v1.54h0v15.38Z"/><path class="cls-1" d="m22.5,77.19v25.56s17.92,0,17.92,0v-25.56s-17.92,0-17.92,0Z"/><path class="cls-1" d="m61.7,134.26v-43.13h6.33v2.98h-3.16v8.6h19.52c2.28,0,4.13-1.85,4.13-4.13v-21.39h-33.49c-6.22,0-11.27,5.04-11.27,11.27v52.2c0,6.22,5.04,11.27,11.27,11.27h12.47s0-17.69,0-17.69h-5.81Z"/><path class="cls-1" d="m91.73,129.25h18.33s0-52.16,0-52.16h-18.33v33.6h-3.2v-5h-17.91v46.14h17.91v-28.83h3.2v6.26Z"/><path class="cls-1" d="m91.73,151.82h49.6v-19.61h-10.47v-55.13h-17.59v55.13h-21.54s0,19.61,0,19.61Z"/><polyline class="cls-1" points="22.59 105.73 22.59 120.45 40.42 120.45 40.42 105.73"/></g></svg>
