<?xml version="1.0" encoding="UTF-8"?><svg id="Calque_2" xmlns="http://www.w3.org/2000/svg" viewBox="0 0 171.56 171.5"><defs><style>.cls-1{fill:none;}.cls-2{fill:#fff;}.cls-3{fill:#ffa86b;}</style></defs><g id="Calque_1-2"><circle class="cls-3" cx="85.81" cy="85.75" r="85.75"/><polygon class="cls-2" points="52.1 23.13 52.1 72.73 74.66 72.73 74.66 44.12 76.11 44.12 76.11 52.64 82.64 52.64 82.64 44.12 119.52 44.12 119.52 23.13 83.74 23.13 70.42 23.13 68.75 23.13 52.1 23.13"/><path class="cls-2" d="m66.29,151.04l1.65-1.6v-28.44l-3.64-3.59h-8.23v32.03l1.6,1.6h8.61Zm-1.99-37.6l3.64-3.59v-28.44l-1.65-1.6h-8.61l-1.6,1.6v32.02h8.23Zm7.62-33.63v31.64l-3.98,3.98,3.98,3.98v31.64l-3.98,3.97h-11.87l-3.98-3.97v-71.23l3.98-3.98h11.87l3.98,3.98Z"/><path class="cls-2" d="m90.09,151.04l1.66-1.6v-68.03l-1.66-1.6h-8.61l-1.6,1.6v68.03l1.6,1.6h8.61Zm5.63-71.23v71.23l-3.98,3.97h-11.87l-3.98-3.97v-71.23l3.98-3.98h11.87l3.98,3.98Z"/><polygon class="cls-2" points="119.52 111.45 115.55 115.43 119.52 119.4 119.52 155.01 115.55 155.01 115.55 121 111.9 117.41 107.26 117.41 103.67 121 103.67 155.01 99.7 155.01 99.7 119.4 103.67 115.43 99.7 111.45 99.7 75.83 103.67 75.83 103.67 109.85 107.26 113.44 111.9 113.44 115.55 109.85 115.55 75.83 119.52 75.83 119.52 111.45"/><path class="cls-2" d="m90.5,51.89v15.72h2.31v-1.09h-1.15v-3.14h7.11c.83,0,1.51.67,1.51,1.51v7.79h-12.21c-2.27,0-4.11-1.84-4.11-4.11v-19.03c0-2.27,1.84-4.11,4.11-4.11h4.54v6.45h-2.12Z"/><polygon class="cls-2" points="101.45 53.72 108.13 53.72 108.13 72.73 101.45 72.73 101.45 60.49 100.28 60.49 100.28 62.31 93.75 62.31 93.75 45.49 100.28 45.49 100.28 56 101.45 56 101.45 53.72"/><polygon class="cls-2" points="101.45 45.49 119.52 45.49 119.52 52.64 115.71 52.64 115.71 72.73 109.29 72.73 109.29 52.64 101.45 52.64 101.45 45.49"/><rect class="cls-2" x="76.11" y="53.72" width="6.53" height="19.01"/><path class="cls-1" d="m0,85.75c0,47.36,38.39,85.75,85.75,85.75s85.75-38.39,85.75-85.75S133.1,0,85.75,0,0,38.39,0,85.75"/></g></svg>