<?xml version="1.0" encoding="UTF-8"?><svg id="Calque_2" xmlns="http://www.w3.org/2000/svg" xmlns:xlink="http://www.w3.org/1999/xlink" viewBox="0 0 165.8 183.27"><defs><style>.cls-1{fill:none;}.cls-2{clip-path:url(#clippath);}.cls-3{fill:blue;}.cls-4{fill:#fff;}.cls-5{fill:#ffa96a;}.cls-6{clip-path:url(#clippath-1);}.cls-7{clip-path:url(#clippath-3);}.cls-8{clip-path:url(#clippath-2);}</style><clipPath id="clippath"><polygon class="cls-1" points="67.56 .18 98.77 .18 83.16 24.29 67.56 .18"/></clipPath><clipPath id="clippath-1"><path class="cls-1" d="m71.76,46.51s-14.21-27.28-16.74-27.05-24.07.69-29.11,17.42C20.86,53.62,0,118.27,0,118.27c0,0,14.21-.69,21.55,5.04l19.03-59.38.11-.1c1.94-1.7,4.91-1.45,6.54.56h0s1.6,45.85,1.6,45.85c0,0,15.59-52.27,22.93-63.73Z"/></clipPath><clipPath id="clippath-2"><path class="cls-1" d="m110.73,19.46s-37.83,61.67-40.58,91.93c0,0,39.43,1.38,47-1.83l1.6-45.16.39-.31c1.64-1.29,3.96-1.26,5.57.08h0s19.26,60.75,19.26,60.75c0,0,8.48-6.42,21.78-5.27l-26.13-82.53s-4.36-14.67-21.66-16.28l-7.22-1.38Z"/></clipPath><clipPath id="clippath-3"><path class="cls-1" d="m117.95,130.55s-45.62,4.67-69.33,0l-12.74,43.08s42.79,21.7,93.88,0l-11.81-43.08Z"/></clipPath></defs><g id="Calque_1-2"><path class="cls-3" d="m71.81,46.33s-14.21-27.28-16.74-27.05-24.07.69-29.11,17.42C20.92,53.43.05,118.08.05,118.08c0,0,14.21-.69,21.55,5.04l19.03-59.38.11-.1c1.94-1.7,4.91-1.45,6.54.56h0s1.6,45.85,1.6,45.85c0,0,15.59-52.27,22.93-63.73Z"/><path class="cls-3" d="m110.78,19.27s-37.83,61.67-40.58,91.93c0,0,39.43,1.38,47-1.83l1.6-45.16.39-.31c1.64-1.29,3.96-1.26,5.57.08h0s19.26,60.75,19.26,60.75c0,0,8.48-6.42,21.78-5.27l-26.13-82.53s-4.36-14.67-21.66-16.28l-7.22-1.38Z"/><path class="cls-3" d="m118,130.36s-45.62,4.67-69.33,0l-12.74,43.08s42.79,21.7,93.88,0l-11.81-43.08Z"/><polygon points="67.67 0 98.88 0 83.27 24.11 67.67 0"/><polygon class="cls-3" points="61.1 15.42 64.58 6.98 79.62 31 75.22 38.71 61.1 15.42"/><path class="cls-3" d="m101.99,7.9s-35.35,53.33-44.66,102.21h6.32s19.62-67.51,41.9-94.11l-3.55-8.1Z"/><path class="cls-3" d="m48.68,116.43s29.93,4.66,67.84,0v6.7s-35.25,6.03-67.84,0v-6.7Z"/><polygon class="cls-3" points="67.61 0 98.82 0 83.22 24.11 67.61 0"/><g class="cls-2"><g><path class="cls-4" d="m63.06,26.37h19.63v-7.12h-10.22s0-1.45,0-1.45h7.43v-5.28h-7.43s0-22.46,0-22.46h-9.42s0,22.11,0,22.11h0v5.98h0v.75h0v7.47Z"/><path class="cls-4" d="m73.99-9.93V2.48s8.7,0,8.7,0v-12.42s-8.7,0-8.7,0Z"/><path class="cls-4" d="m93.03,17.79V-3.16h3.07v1.45h-1.53V2.47h9.48c1.11,0,2.01-.9,2.01-2.01v-10.39h-16.27c-3.02,0-5.47,2.45-5.47,5.47v25.36c0,3.02,2.45,5.47,5.47,5.47h6.06s0-8.59,0-8.59h-2.82Z"/><path class="cls-4" d="m107.61,15.36h8.91s0-25.34,0-25.34h-8.91V6.34h-1.55v-2.43h-8.7v22.41h8.7v-14.01h1.55v3.04Z"/><path class="cls-4" d="m107.61,26.32h24.09v-9.53h-5.08V-9.98h-8.55v26.78h-10.46s0,9.53,0,9.53Z"/><polyline class="cls-4" points="74.03 3.93 74.03 11.08 82.69 11.08 82.69 3.93"/><path class="cls-4" d="m166.5-1.42v20.95h-3.07v-1.45h1.53v-4.18h-9.48c-1.11,0-2.01.9-2.01,2.01v10.39h16.27c3.02,0,5.47-2.45,5.47-5.47V-4.53c0-3.02-2.45-5.47-5.47-5.47h-6.06s0,8.59,0,8.59h2.82Z"/><path class="cls-4" d="m151.91,1.01h-8.91s0,25.34,0,25.34h8.91V10.03h1.55v2.43h8.7V-9.96h-8.7V4.05h-1.55V1.01Z"/><path class="cls-4" d="m151.91-9.96h-24.09V-.43h5.08v26.78h8.55V-.43h10.46s0-9.53,0-9.53Z"/></g></g><g class="cls-6"><g><path class="cls-4" d="m-5.69,2.28H3.22s0,25.34,0,25.34H-5.69V11.3h-1.55v2.43h-8.7V-8.68H-7.24V5.32h1.55v-3.04Z"/><path class="cls-4" d="m-5.69-8.68h24.09V.84h-5.08v26.78H4.77V.84H-5.69s0-9.53,0-9.53Z"/><path class="cls-4" d="m83.16,27.65h-19.63v-7.12h10.22s0-1.45,0-1.45h-7.43v-5.28h7.43s0-22.46,0-22.46h9.42s0,22.11,0,22.11h0v5.98h0v.75h0v7.47Z"/><path class="cls-4" d="m72.23-8.66V3.76s-8.7,0-8.7,0v-12.42s8.7,0,8.7,0Z"/><path class="cls-4" d="m53.19,19.06V-1.89h-3.07V-.44h1.53V3.74h-9.48c-1.11,0-2.01-.9-2.01-2.01v-10.39h16.27c3.02,0,5.47,2.45,5.47,5.47v25.36c0,3.02-2.45,5.47-5.47,5.47h-6.06s0-8.59,0-8.59h2.82Z"/><path class="cls-4" d="m38.6,16.63h-8.91s0-25.34,0-25.34h8.91V7.61h1.55v-2.43h8.7v22.41h-8.7v-14.01h-1.55v3.04Z"/><path class="cls-4" d="m38.6,27.6H14.51v-9.53h5.08V-8.71h8.55v26.78h10.46s0,9.53,0,9.53Z"/><polyline class="cls-4" points="72.19 5.21 72.19 12.36 63.53 12.36 63.53 5.21"/><path class="cls-4" d="m-5.69,54.05H3.22s0-25.34,0-25.34H-5.69v16.32h-1.55v-2.43h-8.7v22.41H-7.24v-14.01h1.55v3.04Z"/><path class="cls-4" d="m-5.69,65.01h24.09v-9.53h-5.08v-26.78H4.77v26.78H-5.69s0,9.53,0,9.53Z"/><path class="cls-4" d="m83.16,28.68h-19.63v7.12h10.22s0,1.45,0,1.45h-7.43v5.28h7.43s0,22.46,0,22.46h9.42s0-22.11,0-22.11h0v-5.98h0v-.75h0v-7.47Z"/><path class="cls-4" d="m72.23,64.99v-12.42s-8.7,0-8.7,0v12.42s8.7,0,8.7,0Z"/><path class="cls-4" d="m53.19,37.27v20.95h-3.07v-1.45h1.53v-4.18h-9.48c-1.11,0-2.01.9-2.01,2.01v10.39h16.27c3.02,0,5.47-2.45,5.47-5.47v-25.36c0-3.02-2.45-5.47-5.47-5.47h-6.06s0,8.59,0,8.59h2.82Z"/><path class="cls-4" d="m38.6,39.7h-8.91s0,25.34,0,25.34h8.91v-16.32h1.55v2.43h8.7v-22.41h-8.7v14.01h-1.55v-3.04Z"/><path class="cls-4" d="m38.6,28.74H14.51v9.53h5.08v26.78h8.55v-26.78h10.46s0-9.53,0-9.53Z"/><polyline class="cls-4" points="72.19 51.13 72.19 43.98 63.53 43.98 63.53 51.13"/><path class="cls-4" d="m-5.69,77.29H3.22s0,25.34,0,25.34H-5.69v-16.32h-1.55v2.43h-8.7v-22.41H-7.24v14.01h1.55v-3.04Z"/><path class="cls-4" d="m-5.69,66.33h24.09v9.53h-5.08v26.78H4.77v-26.78H-5.69s0-9.53,0-9.53Z"/><path class="cls-4" d="m83.16,102.66h-19.63v-7.12h10.22s0-1.45,0-1.45h-7.43v-5.28h7.43s0-22.46,0-22.46h9.42s0,22.11,0,22.11h0v5.98h0v.75h0v7.47Z"/><path class="cls-4" d="m72.23,66.35v12.42s-8.7,0-8.7,0v-12.42s8.7,0,8.7,0Z"/><path class="cls-4" d="m53.19,94.07v-20.95h-3.07v1.45h1.53v4.18h-9.48c-1.11,0-2.01-.9-2.01-2.01v-10.39h16.27c3.02,0,5.47,2.45,5.47,5.47v25.36c0,3.02-2.45,5.47-5.47,5.47h-6.06s0-8.59,0-8.59h2.82Z"/><path class="cls-4" d="m38.6,91.64h-8.91s0-25.34,0-25.34h8.91v16.32h1.55v-2.43h8.7v22.41h-8.7v-14.01h-1.55v3.04Z"/><path class="cls-4" d="m38.6,102.6H14.51v-9.53h5.08v-26.78h8.55v26.78h10.46s0,9.53,0,9.53Z"/><polyline class="cls-4" points="72.19 80.22 72.19 87.36 63.53 87.36 63.53 80.22"/><path class="cls-4" d="m-5.69,129.06H3.22s0-25.34,0-25.34H-5.69v16.32h-1.55v-2.43h-8.7v22.41H-7.24v-14.01h1.55v3.04Z"/><path class="cls-4" d="m-5.69,140.02h24.09v-9.53h-5.08v-26.78H4.77v26.78H-5.69s0,9.53,0,9.53Z"/><path class="cls-4" d="m83.16,103.69h-19.63v7.12h10.22s0,1.45,0,1.45h-7.43v5.28h7.43s0,22.46,0,22.46h9.42s0-22.11,0-22.11h0v-5.98h0v-.75h0v-7.47Z"/><path class="cls-4" d="m72.23,140v-12.42s-8.7,0-8.7,0v12.42s8.7,0,8.7,0Z"/><path class="cls-4" d="m53.19,112.28v20.95h-3.07v-1.45h1.53v-4.18h-9.48c-1.11,0-2.01.9-2.01,2.01v10.39h16.27c3.02,0,5.47-2.45,5.47-5.47v-25.36c0-3.02-2.45-5.47-5.47-5.47h-6.06s0,8.59,0,8.59h2.82Z"/><path class="cls-4" d="m38.6,114.71h-8.91s0,25.34,0,25.34h8.91v-16.32h1.55v2.43h8.7v-22.41h-8.7v14.01h-1.55v-3.04Z"/><path class="cls-4" d="m38.6,103.74H14.51v9.53h5.08v26.78h8.55v-26.78h10.46s0-9.53,0-9.53Z"/><polyline class="cls-4" points="72.19 126.13 72.19 118.99 63.53 118.99 63.53 126.13"/></g></g><g class="cls-8"><g><path class="cls-4" d="m61.04,11.08h19.63v7.12h-10.22s0,1.45,0,1.45h7.43v5.28h-7.43s0,22.46,0,22.46h-9.42s0-22.11,0-22.11h0v-5.98h0v-.75h0v-7.47Z"/><path class="cls-4" d="m71.97,47.39v-12.42s8.7,0,8.7,0v12.42s-8.7,0-8.7,0Z"/><path class="cls-4" d="m91.02,19.67v20.95h3.07v-1.45h-1.53v-4.18h9.48c1.11,0,2.01.9,2.01,2.01v10.39h-16.27c-3.02,0-5.47-2.45-5.47-5.47v-25.36c0-3.02,2.45-5.47,5.47-5.47h6.06s0,8.59,0,8.59h-2.82Z"/><path class="cls-4" d="m105.6,22.1h8.91s0,25.34,0,25.34h-8.91v-16.32h-1.55v2.43h-8.7V11.13h8.7v14.01h1.55v-3.04Z"/><path class="cls-4" d="m105.6,11.13h24.09v9.53h-5.08v26.78h-8.55v-26.78h-10.46s0-9.53,0-9.53Z"/><polyline class="cls-4" points="72.02 33.52 72.02 26.37 80.68 26.37 80.68 33.52"/><path class="cls-4" d="m164.48,38.88v-20.95h-3.07v1.45h1.53v4.18h-9.48c-1.11,0-2.01-.9-2.01-2.01v-10.39h16.27c3.02,0,5.47,2.45,5.47,5.47v25.36c0,3.02-2.45,5.47-5.47,5.47h-6.06s0-8.59,0-8.59h2.82Z"/><path class="cls-4" d="m149.9,36.44h-8.91s0-25.34,0-25.34h8.91v16.32h1.55v-2.43h8.7v22.41h-8.7v-14.01h-1.55v3.04Z"/><path class="cls-4" d="m149.9,47.41h-24.09v-9.53h5.08V11.11h8.55v26.78h10.46s0,9.53,0,9.53Z"/><path class="cls-4" d="m61.04,84.88h19.63v-7.12h-10.22s0-1.45,0-1.45h7.43v-5.28h-7.43s0-22.46,0-22.46h-9.42s0,22.11,0,22.11h0v5.98h0v.75h0v7.47Z"/><path class="cls-4" d="m71.97,48.58v12.42s8.7,0,8.7,0v-12.42s-8.7,0-8.7,0Z"/><path class="cls-4" d="m91.02,76.3v-20.95h3.07v1.45h-1.53v4.18h9.48c1.11,0,2.01-.9,2.01-2.01v-10.39h-16.27c-3.02,0-5.47,2.45-5.47,5.47v25.36c0,3.02,2.45,5.47,5.47,5.47h6.06s0-8.59,0-8.59h-2.82Z"/><path class="cls-4" d="m105.6,73.86h8.91s0-25.34,0-25.34h-8.91v16.32h-1.55v-2.43h-8.7v22.41h8.7v-14.01h1.55v3.04Z"/><path class="cls-4" d="m105.6,84.83h24.09v-9.53h-5.08v-26.78h-8.55v26.78h-10.46s0,9.53,0,9.53Z"/><polyline class="cls-4" points="72.02 62.44 72.02 69.59 80.68 69.59 80.68 62.44"/><path class="cls-4" d="m164.48,57.08v20.95h-3.07v-1.45h1.53v-4.18h-9.48c-1.11,0-2.01.9-2.01,2.01v10.39h16.27c3.02,0,5.47-2.45,5.47-5.47v-25.36c0-3.02-2.45-5.47-5.47-5.47h-6.06s0,8.59,0,8.59h2.82Z"/><path class="cls-4" d="m149.9,59.52h-8.91s0,25.34,0,25.34h8.91v-16.32h1.55v2.43h8.7v-22.41h-8.7v14.01h-1.55v-3.04Z"/><path class="cls-4" d="m149.9,48.55h-24.09v9.53h5.08v26.78h8.55v-26.78h10.46s0-9.53,0-9.53Z"/><path class="cls-4" d="m61.04,86.09h19.63v7.12h-10.22s0,1.45,0,1.45h7.43v5.28h-7.43s0,22.46,0,22.46h-9.42s0-22.11,0-22.11h0v-5.98h0v-.75h0v-7.47Z"/><path class="cls-4" d="m71.97,122.39v-12.42s8.7,0,8.7,0v12.42s-8.7,0-8.7,0Z"/><path class="cls-4" d="m91.02,94.67v20.95h3.07v-1.45h-1.53v-4.18h9.48c1.11,0,2.01.9,2.01,2.01v10.39h-16.27c-3.02,0-5.47-2.45-5.47-5.47v-25.36c0-3.02,2.45-5.47,5.47-5.47h6.06s0,8.59,0,8.59h-2.82Z"/><path class="cls-4" d="m105.6,97.11h8.91s0,25.34,0,25.34h-8.91v-16.32h-1.55v2.43h-8.7v-22.41h8.7v14.01h1.55v-3.04Z"/><path class="cls-4" d="m105.6,86.14h24.09v9.53h-5.08v26.78h-8.55v-26.78h-10.46s0-9.53,0-9.53Z"/><polyline class="cls-4" points="72.02 108.53 72.02 101.38 80.68 101.38 80.68 108.53"/><path class="cls-4" d="m164.48,113.89v-20.95h-3.07v1.45h1.53v4.18h-9.48c-1.11,0-2.01-.9-2.01-2.01v-10.39h16.27c3.02,0,5.47,2.45,5.47,5.47v25.36c0,3.02-2.45,5.47-5.47,5.47h-6.06s0-8.59,0-8.59h2.82Z"/><path class="cls-4" d="m149.9,111.45h-8.91s0-25.34,0-25.34h8.91v16.32h1.55v-2.43h8.7v22.41h-8.7v-14.01h-1.55v3.04Z"/><path class="cls-4" d="m149.9,122.42h-24.09v-9.53h5.08v-26.78h8.55v26.78h10.46s0,9.53,0,9.53Z"/><path class="cls-5" d="m61.04,159.89h19.63v-7.12h-10.22s0-1.45,0-1.45h7.43v-5.28h-7.43s0-22.46,0-22.46h-9.42s0,22.11,0,22.11h0v5.98h0v.75h0v7.47Z"/><path class="cls-4" d="m71.97,123.58v12.42s8.7,0,8.7,0v-12.42s-8.7,0-8.7,0Z"/><path class="cls-4" d="m91.02,151.3v-20.95h3.07v1.45h-1.53v4.18h9.48c1.11,0,2.01-.9,2.01-2.01v-10.39h-16.27c-3.02,0-5.47,2.45-5.47,5.47v25.36c0,3.02,2.45,5.47,5.47,5.47h6.06s0-8.59,0-8.59h-2.82Z"/><path class="cls-4" d="m105.6,148.87h8.91s0-25.34,0-25.34h-8.91v16.32h-1.55v-2.43h-8.7v22.41h8.7v-14.01h1.55v3.04Z"/><path class="cls-4" d="m105.6,159.84h24.09v-9.53h-5.08v-26.78h-8.55v26.78h-10.46s0,9.53,0,9.53Z"/><polyline class="cls-4" points="72.02 137.45 72.02 144.6 80.68 144.6 80.68 137.45"/><path class="cls-4" d="m164.48,132.09v20.95h-3.07v-1.45h1.53v-4.18h-9.48c-1.11,0-2.01.9-2.01,2.01v10.39h16.27c3.02,0,5.47-2.45,5.47-5.47v-25.36c0-3.02-2.45-5.47-5.47-5.47h-6.06s0,8.59,0,8.59h2.82Z"/><path class="cls-4" d="m149.9,134.53h-8.91s0,25.34,0,25.34h8.91v-16.32h1.55v2.43h8.7v-22.41h-8.7v14.01h-1.55v-3.04Z"/><path class="cls-4" d="m149.9,123.56h-24.09v9.53h5.08v26.78h8.55v-26.78h10.46s0-9.53,0-9.53Z"/></g></g><g class="cls-7"><g><path class="cls-4" d="m20.92,125.99h19.63v7.12h-10.22s0,1.45,0,1.45h7.43v5.28h-7.43s0,22.46,0,22.46h-9.42s0-22.11,0-22.11h0v-5.98h0v-.75h0v-7.47Z"/><path class="cls-4" d="m31.86,162.3v-12.42s8.7,0,8.7,0v12.42s-8.7,0-8.7,0Z"/><path class="cls-4" d="m50.9,134.58v20.95h3.07v-1.45h-1.53v-4.18h9.48c1.11,0,2.01.9,2.01,2.01v10.39h-16.27c-3.02,0-5.47-2.45-5.47-5.47v-25.36c0-3.02,2.45-5.47,5.47-5.47h6.06s0,8.59,0,8.59h-2.82Z"/><path class="cls-4" d="m65.48,137.01h8.91s0,25.34,0,25.34h-8.91v-16.32h-1.55v2.43h-8.7v-22.41h8.7v14.01h1.55v-3.04Z"/><path class="cls-4" d="m65.48,126.04h24.09v9.53h-5.08v26.78h-8.55v-26.78h-10.46s0-9.53,0-9.53Z"/><polyline class="cls-4" points="31.9 148.43 31.9 141.28 40.56 141.28 40.56 148.43"/><path class="cls-4" d="m154.34,162.37h-19.63v-7.12h10.22s0-1.45,0-1.45h-7.43v-5.28h7.43s0-22.46,0-22.46h9.42s0,22.11,0,22.11h0v5.98h0v.75h0v7.47Z"/><path class="cls-4" d="m143.4,126.07v12.42s-8.7,0-8.7,0v-12.42s8.7,0,8.7,0Z"/><path class="cls-4" d="m124.36,153.79v-20.95h-3.07v1.45h1.53v4.18h-9.48c-1.11,0-2.01-.9-2.01-2.01v-10.39h16.27c3.02,0,5.47,2.45,5.47,5.47v25.36c0,3.02-2.45,5.47-5.47,5.47h-6.06s0-8.59,0-8.59h2.82Z"/><path class="cls-4" d="m109.78,151.35h-8.91s0-25.34,0-25.34h8.91v16.32h1.55v-2.43h8.7v22.41h-8.7v-14.01h-1.55v3.04Z"/><path class="cls-4" d="m109.78,162.32h-24.09v-9.53h5.08v-26.78h8.55v26.78h10.46s0,9.53,0,9.53Z"/><polyline class="cls-4" points="143.36 139.93 143.36 147.08 134.7 147.08 134.7 139.93"/><path class="cls-4" d="m20.92,199.79h19.63v-7.12h-10.22s0-1.45,0-1.45h7.43v-5.28h-7.43s0-22.46,0-22.46h-9.42s0,22.11,0,22.11h0v5.98h0v.75h0v7.47Z"/><path class="cls-4" d="m31.86,163.49v12.42s8.7,0,8.7,0v-12.42s-8.7,0-8.7,0Z"/><path class="cls-4" d="m50.9,191.21v-20.95h3.07v1.45h-1.53v4.18h9.48c1.11,0,2.01-.9,2.01-2.01v-10.39h-16.27c-3.02,0-5.47,2.45-5.47,5.47v25.36c0,3.02,2.45,5.47,5.47,5.47h6.06s0-8.59,0-8.59h-2.82Z"/><path class="cls-4" d="m65.48,188.77h8.91s0-25.34,0-25.34h-8.91v16.32h-1.55v-2.43h-8.7v22.41h8.7v-14.01h1.55v3.04Z"/><path class="cls-4" d="m65.48,199.74h24.09v-9.53h-5.08v-26.78h-8.55v26.78h-10.46s0,9.53,0,9.53Z"/><polyline class="cls-4" points="31.9 177.35 31.9 184.5 40.56 184.5 40.56 177.35"/><path class="cls-4" d="m154.34,163.41h-19.63v7.12h10.22s0,1.45,0,1.45h-7.43v5.28h7.43s0,22.46,0,22.46h9.42s0-22.11,0-22.11h0v-5.98h0v-.75h0v-7.47Z"/><path class="cls-4" d="m124.36,171.99v20.95h-3.07v-1.45h1.53v-4.18h-9.48c-1.11,0-2.01.9-2.01,2.01v10.39h16.27c3.02,0,5.47-2.45,5.47-5.47v-25.36c0-3.02-2.45-5.47-5.47-5.47h-6.06s0,8.59,0,8.59h2.82Z"/><path class="cls-4" d="m109.78,174.43h-8.91s0,25.34,0,25.34h8.91v-16.32h1.55v2.43h8.7v-22.41h-8.7v14.01h-1.55v-3.04Z"/><path class="cls-4" d="m109.78,163.46h-24.09v9.53h5.08v26.78h8.55v-26.78h10.46s0-9.53,0-9.53Z"/><polyline class="cls-5" points="143.36 185.85 143.36 178.7 134.7 178.7 134.7 185.85"/></g></g></g></svg>