<?xml version="1.0" encoding="UTF-8"?><svg id="Calque_2" xmlns="http://www.w3.org/2000/svg" viewBox="0 0 209.3 58.86"><defs><style>.cls-1{fill:blue;}.cls-2{fill:#ffa96a;}</style></defs><g id="Calque_1-2"><g><path class="cls-1" d="m101.32,12.77h-20.39l-2.56-2.56-2.56,2.56h-20.39l-2.56-2.56V2.56l2.56-2.56h45.9l2.56,2.56v7.65l-2.56,2.56Zm-21.67-4.91l2.31,2.35h18.33l1.03-1.07V3.59l-1.03-1.03h-20.64v5.3Zm-24.23,1.28l1.03,1.07h18.33l2.31-2.35V2.56h-20.64l-1.03,1.03v5.55Z"/><path class="cls-1" d="m101.32,28.11h-45.9l-2.56-2.56v-7.65l2.56-2.56h45.9l2.56,2.56v7.65l-2.56,2.56Zm-45.9-3.63l1.03,1.07h43.84l1.03-1.07v-5.55l-1.03-1.03h-43.84l-1.03,1.03v5.55Z"/></g><g><path class="cls-1" d="m101.32,43.52h-20.39l-2.56-2.56-2.56,2.56h-20.39l-2.56-2.56v-7.65l2.56-2.56h45.9l2.56,2.56v7.65l-2.56,2.56Zm-21.67-4.91l2.31,2.35h18.33l1.03-1.07v-5.55l-1.03-1.03h-20.64v5.3Zm-24.23,1.28l1.03,1.07h18.33l2.31-2.35v-5.3h-20.64l-1.03,1.03v5.55Z"/><path class="cls-1" d="m101.32,58.86h-45.9l-2.56-2.56v-7.65l2.56-2.56h45.9l2.56,2.56v7.65l-2.56,2.56Zm-45.9-3.63l1.03,1.07h43.84l1.03-1.07v-5.55l-1.03-1.03h-43.84l-1.03,1.03v5.55Z"/></g><g><path class="cls-1" d="m2.56,46.08h20.39l2.56,2.56,2.56-2.56h20.39l2.56,2.56v7.65l-2.56,2.56H2.56l-2.56-2.56v-7.65l2.56-2.56Zm21.67,4.91l-2.31-2.35H3.59l-1.03,1.07v5.55l1.03,1.03h20.64v-5.3Zm24.23-1.28l-1.03-1.07h-18.33l-2.31,2.35v5.3h20.64l1.03-1.03v-5.55Z"/><path class="cls-1" d="m2.56,30.75h45.9l2.56,2.56v7.65l-2.56,2.56H2.56l-2.56-2.56v-7.65l2.56-2.56Zm45.9,3.63l-1.03-1.07H3.59l-1.03,1.07v5.55l1.03,1.03h43.84l1.03-1.03v-5.55Z"/></g><g><path class="cls-2" d="m2.56,15.34h20.39l2.56,2.56,2.56-2.56h20.39l2.56,2.56v7.65l-2.56,2.56H2.56l-2.56-2.56v-7.65l2.56-2.56Zm21.67,4.91l-2.31-2.35H3.59l-1.03,1.07v5.55l1.03,1.03h20.64v-5.3Zm24.23-1.28l-1.03-1.07h-18.33l-2.31,2.35v5.3h20.64l1.03-1.03v-5.55Z"/><path class="cls-2" d="m2.56,0h45.9l2.56,2.56v7.65l-2.56,2.56H2.56l-2.56-2.56V2.56L2.56,0Zm45.9,3.63l-1.03-1.07H3.59l-1.03,1.07v5.55l1.03,1.03h43.84l1.03-1.03V3.63Z"/></g><g><path class="cls-2" d="m206.74,12.77h-20.39l-2.56-2.56-2.56,2.56h-20.39l-2.56-2.56V2.56l2.56-2.56h45.9l2.56,2.56v7.65l-2.56,2.56Zm-21.67-4.91l2.31,2.35h18.33l1.03-1.07V3.59l-1.03-1.03h-20.64v5.3Zm-24.23,1.28l1.03,1.07h18.33l2.31-2.35V2.56h-20.64l-1.03,1.03v5.55Z"/><path class="cls-1" d="m206.74,28.11h-45.9l-2.56-2.56v-7.65l2.56-2.56h45.9l2.56,2.56v7.65l-2.56,2.56Zm-45.9-3.63l1.03,1.07h43.84l1.03-1.07v-5.55l-1.03-1.03h-43.84l-1.03,1.03v5.55Z"/></g><g><path class="cls-1" d="m206.74,43.52h-20.39l-2.56-2.56-2.56,2.56h-20.39l-2.56-2.56v-7.65l2.56-2.56h45.9l2.56,2.56v7.65l-2.56,2.56Zm-21.67-4.91l2.31,2.35h18.33l1.03-1.07v-5.55l-1.03-1.03h-20.64v5.3Zm-24.23,1.28l1.03,1.07h18.33l2.31-2.35v-5.3h-20.64l-1.03,1.03v5.55Z"/><path class="cls-1" d="m206.74,58.86h-45.9l-2.56-2.56v-7.65l2.56-2.56h45.9l2.56,2.56v7.65l-2.56,2.56Zm-45.9-3.63l1.03,1.07h43.84l1.03-1.07v-5.55l-1.03-1.03h-43.84l-1.03,1.03v5.55Z"/></g><g><path class="cls-2" d="m107.98,46.08h20.39l2.56,2.56,2.56-2.56h20.39l2.56,2.56v7.65l-2.56,2.56h-45.9l-2.56-2.56v-7.65l2.56-2.56Zm21.67,4.91l-2.31-2.35h-18.33l-1.03,1.07v5.55l1.03,1.03h20.64v-5.3Zm24.23-1.28l-1.03-1.07h-18.33l-2.31,2.35v5.3h20.64l1.03-1.03v-5.55Z"/><path class="cls-2" d="m107.98,30.75h45.9l2.56,2.56v7.65l-2.56,2.56h-45.9l-2.56-2.56v-7.65l2.56-2.56Zm45.9,3.63l-1.03-1.07h-43.84l-1.03,1.07v5.55l1.03,1.03h43.84l1.03-1.03v-5.55Z"/></g><g><path class="cls-1" d="m107.98,15.34h20.39l2.56,2.56,2.56-2.56h20.39l2.56,2.56v7.65l-2.56,2.56h-45.9l-2.56-2.56v-7.65l2.56-2.56Zm21.67,4.91l-2.31-2.35h-18.33l-1.03,1.07v5.55l1.03,1.03h20.64v-5.3Zm24.23-1.28l-1.03-1.07h-18.33l-2.31,2.35v5.3h20.64l1.03-1.03v-5.55Z"/><path class="cls-1" d="m107.98,0h45.9l2.56,2.56v7.65l-2.56,2.56h-45.9l-2.56-2.56V2.56l2.56-2.56Zm45.9,3.63l-1.03-1.07h-43.84l-1.03,1.07v5.55l1.03,1.03h43.84l1.03-1.03V3.63Z"/></g></g></svg>