<?xml version="1.0" encoding="UTF-8"?><svg id="Calque_2" xmlns="http://www.w3.org/2000/svg" viewBox="0 0 72.61 160.56"><defs><style>.cls-1{stroke:#000;stroke-miterlimit:10;}.cls-2{fill:blue;}.cls-3{fill:#fff;}</style></defs><g id="Calque_1-2"><g><path class="cls-2" d="m25.73,81.91V20.01h9.08v4.28h-4.53v12.35h28.02c3.28,0,5.93-2.66,5.93-5.93V0H16.17C7.24,0,0,7.24,0,16.17v74.93c0,8.93,7.24,16.17,16.17,16.17h17.89s0-25.39,0-25.39l-8.33.02Z"/><g><ellipse class="cls-1" cx="29.97" cy="27.01" rx="6.19" ry="11.47"/><ellipse class="cls-1" cx="44.69" cy="27.01" rx="6.19" ry="11.47"/><ellipse class="cls-3" cx="29.97" cy="29.81" rx="4.2" ry="8.68"/><ellipse class="cls-3" cx="44.69" cy="29.81" rx="4.2" ry="8.68"/><circle class="cls-1" cx="27.27" cy="32.51" r="2.7"/><circle class="cls-1" cx="42.71" cy="32.51" r="2.7"/></g><path class="cls-2" d="m38.52,143.91v-36.69s25.72,0,25.72,0v36.69s-25.72,0-25.72,0Z"/><polyline class="cls-2" points="38.65 102.95 38.65 81.83 64.24 81.83 64.24 102.95"/><path class="cls-2" d="m8.37,143.91v-45.31s25.72,0,25.72,0v45.31s-25.72,0-25.72,0Z"/><path d="m0,160.56s3.71-12.24,34.09-12.24v12.24H0Z"/><path d="m72.61,160.56s-3.71-12.24-34.09-12.24v12.24h34.09Z"/></g></g></svg>