<?xml version="1.0" encoding="UTF-8"?><svg id="Calque_2" xmlns="http://www.w3.org/2000/svg" viewBox="0 0 59.05 134.82"><defs><style>.cls-1{fill:#ffa86b;}</style></defs><g id="Calque_1-2"><g><path class="cls-1" d="m5.02,134.82c-2.39-.86-4.23-2.28-4.84-4.88-.11-.48-.16-.98-.16-1.48,0-12.4,0-24.79,0-37.19,0-2.27.74-4.27,2.29-5.9,1.39-1.45,1.94-3.09,1.93-5.07-.04-7.32-.02-14.64,0-21.96,0-1.65-.46-3.07-1.62-4.31C.81,52.1-.09,49.81,0,47.12c.13-3.57-.09-7.17.32-10.71,1.09-9.42,9.49-17.81,18.9-19.2.57-.08,1.13-.21,1.76-.32v-4.17c-.37-.09-.8-.08-1.07-.29-.9-.68-2.17-1.27-2.53-2.19C15.74,6.03,17.35-.02,23.58,0c4,.01,7.99,0,11.99,0,3.59,0,6.15,2.29,6.55,5.86.1.9.1,1.83.02,2.74-.18,2.11-1.32,3.38-3.4,3.92-.24.06-.47.16-.71.24v4.17c3.91.47,7.52,1.65,10.71,3.89,6.68,4.69,10.17,11.12,10.25,19.32.02,2.37-.03,4.74.02,7.11.06,2.59-.79,4.83-2.54,6.69-1.22,1.3-1.71,2.78-1.7,4.53.03,7.32.04,14.64,0,21.96,0,1.84.48,3.4,1.77,4.75,1.71,1.79,2.46,3.97,2.45,6.47-.02,11.77-.09,23.54.04,35.31.04,3.9-1.31,6.56-5.05,7.85H5.02Zm24.41-4.23h0c7.62,0,15.24,0,22.86-.01,1.78,0,2.49-.73,2.49-2.5,0-12.15-.01-24.29,0-36.44,0-1.45-.42-2.71-1.43-3.74-2.06-2.09-2.81-4.62-2.8-7.49.03-7.24.02-14.48-.01-21.72-.02-2.92.76-5.48,2.84-7.6.97-.99,1.42-2.21,1.41-3.62-.03-2.75.03-5.49-.03-8.24-.2-9.25-7.88-17.47-17.12-18.01-5.19-.3-10.41-.31-15.6-.05-9.02.44-16.21,6.98-17.51,15.92-.48,3.26-.18,6.64-.3,9.96-.06,1.69.47,3.08,1.63,4.29,1.78,1.86,2.61,4.13,2.61,6.68,0,7.65,0,15.31-.01,22.96,0,2.59-.83,4.88-2.69,6.77-1.06,1.09-1.53,2.4-1.53,3.95.02,12.02,0,24.05,0,36.07,0,2.17.62,2.79,2.83,2.8,7.45.01,14.91,0,22.36,0ZM21.09,8.37h16.83c0-.77.06-1.46-.01-2.15-.13-1.25-.88-1.96-2.15-1.97-4.2-.03-8.4-.02-12.59,0-1.16,0-1.93.73-2.06,1.92-.08.69-.01,1.39-.01,2.19Zm4.22,8.39h8.34v-4.02h-8.34v4.02Z"/><path class="cls-1" d="m29.51,63.17c-4.78,0-9.56,0-14.34,0-1.54,0-2.46-.73-2.5-1.98-.05-1.32.87-2.21,2.43-2.22,9.6-.02,19.21-.01,28.81,0,1.55,0,2.49.89,2.45,2.21-.04,1.22-1,1.99-2.5,1.99-4.78,0-9.56,0-14.34,0Z"/><path class="cls-1" d="m29.46,75.85c4.7,0,9.41,0,14.11,0,.53,0,1.11,0,1.58.22.94.42,1.33,1.22,1.14,2.25-.22,1.16-1.02,1.71-2.12,1.73-2.37.04-4.74.01-7.12.01-7.24,0-14.48,0-21.73,0-.33,0-.67-.01-.99-.09-1.08-.25-1.71-1.1-1.65-2.18.05-1.04.81-1.86,1.92-1.92,1.41-.07,2.83-.05,4.24-.05,3.54,0,7.08,0,10.61,0,0,0,0,0,0,.01Z"/><path class="cls-1" d="m23.24,67.4c2.66,0,5.32,0,7.99,0,1.53,0,2.53.89,2.5,2.16-.03,1.22-1.01,2.06-2.48,2.07-5.37.01-10.73.02-16.1,0-1.59,0-2.5-.83-2.48-2.16.03-1.27.94-2.05,2.45-2.06,2.7-.01,5.41,0,8.11,0h0Z"/><path class="cls-1" d="m10.52,122.23c0,.66.02,1.33,0,1.99-.05,1.27-.8,2.07-1.96,2.13-1.15.06-2.14-.68-2.22-1.87-.1-1.52-.1-3.07,0-4.59.08-1.21,1.08-1.97,2.2-1.91,1.11.06,1.93.93,1.97,2.14.02.7,0,1.41,0,2.11Z"/><path class="cls-1" d="m52.71,122.15c0,.75.06,1.5-.01,2.23-.13,1.27-1.05,2.04-2.26,1.97-1.15-.07-1.9-.88-1.93-2.15-.03-1.37-.03-2.73,0-4.1.03-1.21.87-2.07,1.99-2.11,1.13-.05,2.05.72,2.19,1.93.08.74.02,1.49.02,2.23Z"/><path class="cls-1" d="m42.07,71.62c-.7,0-1.41.05-2.11-.01-1.21-.1-1.99-.98-1.98-2.13,0-1.14.81-2.02,2.04-2.06,1.45-.05,2.9-.05,4.35.01,1.15.05,1.94.9,1.99,1.99.05,1.14-.72,2.07-1.92,2.19-.78.08-1.57.01-2.36.01,0,0,0,0,0,0Z"/><path class="cls-1" d="m42.17,122.25c0,.7.06,1.41-.01,2.11-.15,1.32-1.02,2.05-2.24,1.98-1.18-.06-1.89-.81-1.93-2.13-.04-1.41-.04-2.81,0-4.22.03-1.13.78-1.88,1.83-1.99,1.13-.11,2.04.49,2.25,1.65.15.85.12,1.73.17,2.59-.02,0-.05,0-.07,0Z"/><path class="cls-1" d="m21.02,122.21c0,.74.04,1.49,0,2.23-.07,1.1-.69,1.76-1.78,1.88-1.13.13-2.11-.34-2.21-1.48-.16-1.79-.16-3.62.01-5.42.1-1.08,1.09-1.52,2.15-1.42,1.08.1,1.75.74,1.84,1.84.06.78.01,1.57.01,2.36,0,0,0,0-.01,0Z"/><path class="cls-1" d="m31.57,122.1c0,.79.05,1.58-.01,2.37-.09,1.16-.95,1.91-2.07,1.9-1.12,0-1.99-.76-2.03-1.93-.06-1.49-.06-2.99,0-4.49.04-1.16.91-1.94,2.01-1.97,1.15-.03,2.03.78,2.12,2,.05.7,0,1.41,0,2.12,0,0,0,0-.01,0Z"/></g></g></svg>
