<?xml version="1.0" encoding="UTF-8"?><svg id="Calque_2" xmlns="http://www.w3.org/2000/svg" viewBox="0 0 202.03 201"><defs><style>.cls-1{fill:blue;}</style></defs><g id="Calque_1-2"><g><path class="cls-1" d="m130.18,188.25c.35-2.21.65-4.52,1.1-6.79.19-.99-.04-1.62-.74-2.32-20.1-20.07-40.18-40.16-60.27-60.24-16.11-16.11-32.22-32.21-48.31-48.34-.81-.81-1.54-1.12-2.68-.84-1.53.37-3.11.56-4.67.79-3.91.57-7.38-.42-10.32-3.08-1.07-.96-2.08-2-3.07-3.04-1.61-1.68-1.61-3.22.02-4.86,8.5-8.52,17.02-17.04,25.53-25.55C37.54,23.19,48.32,12.41,59.11,1.63c.3-.3.58-.6.9-.87,1.12-.93,2.8-1.06,3.84-.06,1.64,1.57,3.31,3.16,4.67,4.96,2,2.64,2.48,5.76,2.01,9.02-.07.46-.08.94-.24,1.37-1.29,3.44,0,5.72,2.57,8.27,35.37,35.17,70.62,70.48,105.86,105.78.98.98,1.87,1.46,3.27,1.08,1.34-.36,2.74-.51,4.12-.72,4.28-.65,8.01.45,11.11,3.53,1.67,1.65,3.37,3.28,4.8,5.15-10.05,10.08-20.11,20.14-30.16,30.2-9.89,9.9-19.79,19.79-29.69,29.68-.43.43-.84.88-1.31,1.25-1.06.81-2.37,1.06-3.37.21-2.9-2.47-5.82-4.99-6.78-8.95-.25-1.03-.35-2.1-.54-3.27ZM66.46,26.51c-13.32,13.3-26.65,26.62-39.85,39.81,35.99,35.99,72.1,72.1,108.11,108.11,13.25-13.25,26.55-26.55,39.83-39.83-36.05-36.05-72.16-72.16-108.1-108.1Zm126.97,112.29c-1.55-1.85-3.54-2.79-6.08-2.39-1.98.31-3.97.59-5.94.97-.57.11-1.1.4-1.51.81-13.89,13.85-27.76,27.71-41.62,41.59-.37.37-.72.89-.82,1.39-.41,2.14-.78,4.3-1.05,6.47-.3,2.41.64,4.32,2.44,5.73,18.19-18.19,36.33-36.32,54.58-54.57ZM62.18,7.57C43.97,25.79,25.82,43.94,7.61,62.13c1.29,1.65,3.08,2.65,5.32,2.42,2.35-.24,4.69-.68,7.02-1.1.45-.08.89-.46,1.24-.81,13.85-13.82,27.68-27.66,41.51-41.5.37-.37.73-.89.83-1.38.41-2.19.8-4.39,1.06-6.6.27-2.35-.68-4.23-2.4-5.58Z"/><path class="cls-1" d="m129.44,158.87c.23-.4.51-1.28,1.09-1.86,8.81-8.87,17.65-17.7,26.5-26.53,1.38-1.38,3.24-1.39,4.46-.14,1.25,1.29,1.19,3.03-.24,4.46-8.83,8.85-17.67,17.68-26.51,26.52-1,1-2.17,1.26-3.45.75-1.17-.48-1.78-1.44-1.86-3.19Z"/><path class="cls-1" d="m42.18,71.52c-1.84-.09-2.78-.68-3.29-1.85-.54-1.24-.28-2.39.65-3.34,2.35-2.38,4.72-4.74,7.09-7.11,6.44-6.44,12.89-12.87,19.32-19.33.87-.87,1.88-1.64,3.06-1.19.9.34,1.82,1.12,2.29,1.96.61,1.08.2,2.26-.71,3.17-2.63,2.63-5.26,5.26-7.89,7.89-6.11,6.11-12.2,12.24-18.35,18.33-.71.71-1.69,1.16-2.17,1.48Z"/><polygon class="cls-1" points="12.57 53.62 23.07 64.12 26.78 60.41 15.68 49.32 12.57 53.62"/><polygon class="cls-1" points="19.68 46.22 30.18 56.72 33.88 53.01 22.79 41.92 19.68 46.22"/><polygon class="cls-1" points="26.78 38.82 37.28 49.32 40.99 45.61 29.89 34.51 26.78 38.82"/><polygon class="cls-1" points="35.05 32.98 45.56 43.48 49.26 39.78 38.17 28.68 35.05 32.98"/><polygon class="cls-1" points="42.16 25.58 52.66 36.08 56.37 32.37 45.27 21.28 42.16 25.58"/><polygon class="cls-1" points="48 17.02 58.5 27.52 62.2 23.82 51.11 12.72 48 17.02"/><polygon class="cls-1" points="137.56 177.52 148.06 188.02 151.77 184.31 140.67 173.22 137.56 177.52"/><polygon class="cls-1" points="144.66 170.12 155.16 180.62 158.87 176.91 147.77 165.82 144.66 170.12"/><polygon class="cls-1" points="151.77 162.72 162.27 173.22 165.98 169.51 154.88 158.41 151.77 162.72"/><polygon class="cls-1" points="160.04 156.88 170.54 167.38 174.25 163.68 163.15 152.58 160.04 156.88"/><polygon class="cls-1" points="167.15 149.48 177.65 159.98 181.35 156.27 170.26 145.18 167.15 149.48"/><polygon class="cls-1" points="172.98 140.92 183.49 151.42 187.19 147.72 176.1 136.62 172.98 140.92"/></g></g></svg>