<?xml version="1.0" encoding="UTF-8"?><svg id="Calque_2" xmlns="http://www.w3.org/2000/svg" viewBox="0 0 40.76 96.05"><defs><style>.cls-1{stroke:#000;stroke-miterlimit:10;}.cls-2{fill:#fff;}.cls-3{fill:#ffa96a;}</style></defs><g id="Calque_1-2"><g><path class="cls-3" d="m31.21,23.19h-4.34v23.49l-3.98,3.92h-5.07l-3.92-3.92v-23.49h-4.35v25.24l4.35,4.34-4.35,4.34v31.79c-8.32,0-9.54,7.13-9.54,7.13h13.89v-37.17l3.92-3.92h5.07l3.98,3.92v37.17h13.89s-1.22-7.13-9.54-7.13h0v-31.79l-4.34-4.34,4.34-4.34v-25.24h0Z"/><circle class="cls-3" cx="20" cy="11.21" r="11.21"/><ellipse class="cls-1" cx="16.15" cy="10.79" rx="3.34" ry="6.19"/><ellipse class="cls-1" cx="24.09" cy="10.79" rx="3.34" ry="6.19"/><ellipse class="cls-2" cx="16.15" cy="12.3" rx="2.26" ry="4.68"/><ellipse class="cls-2" cx="24.09" cy="12.3" rx="2.26" ry="4.68"/><circle class="cls-1" cx="14.69" cy="13.76" r="1.46"/><circle class="cls-1" cx="23.02" cy="13.76" r="1.46"/></g></g></svg>