<?xml version="1.0" encoding="UTF-8"?><svg id="Calque_2" xmlns="http://www.w3.org/2000/svg" viewBox="0 0 511.73 257.25"><defs><style>.cls-1{fill:blue;}.cls-2{fill:#ffa96a;}</style></defs><g id="Calque_1-2"><rect class="cls-2" width="511.73" height="257.25"/><g><path class="cls-1" d="m31.22,48.26h84.84v30.77h-44.14s0,6.25,0,6.25h32.08v22.8h-32.08s0,97.04,0,97.04H31.22s0-95.52,0-95.52h0v-25.83h0v-3.23h0v-32.28Z"/><path class="cls-1" d="m78.45,205.12v-53.64s37.61,0,37.61,0v53.64s-37.61,0-37.61,0Z"/><path class="cls-1" d="m160.72,85.35v90.51h13.28v-6.26h-6.62v-18.06h40.97c4.79,0,8.68,3.89,8.68,8.68v44.89h-70.29c-13.06,0-23.65-10.59-23.65-23.65v-109.56c0-13.06,10.59-23.65,23.65-23.65h26.16s0,37.12,0,37.12l-12.19-.03Z"/><path class="cls-1" d="m223.74,95.86h38.48s0,109.48,0,109.48h-38.48v-70.52h-6.72v10.5h-37.59V48.48h37.59v60.52h6.72v-13.13Z"/><path class="cls-1" d="m223.74,48.48h104.09v41.16h-21.97v115.7h-36.92v-115.7h-45.2s0-41.16,0-41.16Z"/><polyline class="cls-1" points="78.64 145.22 78.64 114.33 116.06 114.33 116.05 145.22"/></g><g><path class="cls-1" d="m375.14,55.33v64.48l-8.1,8.1,8.1,8.1v64.48l-8.1,8.1h-24.19l-8.1-8.1V55.33l8.1-8.1h24.19l8.1,8.1Zm-15.53,68.53l7.42-7.32v-57.95l-3.37-3.26h-17.56l-3.26,3.26v65.27h16.77Zm4.05,76.63l3.37-3.26v-57.96l-7.42-7.31h-16.77v65.27l3.26,3.26h17.56Z"/><path class="cls-1" d="m423.64,55.33v145.17l-8.1,8.1h-24.2l-8.1-8.1V55.33l8.1-8.1h24.2l8.1,8.1Zm-11.48,145.17l3.38-3.26V58.59l-3.38-3.26h-17.56l-3.26,3.26v138.64l3.26,3.26h17.56Z"/><path class="cls-1" d="m472.14,119.81l-8.1,8.1,8.1,8.1v72.58h-8.1v-69.32l-7.43-7.31h-9.45l-7.31,7.31v69.32h-8.1v-72.58l8.1-8.1-8.1-8.1V47.23h8.1v69.32l7.31,7.32h9.45l7.43-7.32V47.23h8.1v72.59Z"/></g></g></svg>