<?xml version="1.0" encoding="UTF-8"?><svg id="Calque_2" xmlns="http://www.w3.org/2000/svg" viewBox="0 0 70.76 66.12"><defs><style>.cls-1{fill:#fff;}.cls-2{fill:#ffa96a;}</style></defs><g id="Calque_1-2"><g><polygon class="cls-2" points="49.7 40.4 65.31 33.98 50.65 27.95 57.51 11.5 40.07 18.77 32.81 1.13 25.47 18.98 9.21 12.2 15.62 27.56 0 33.98 17.83 41.31 10.9 57.92 27.17 51.14 33.34 66.12 39.68 50.7 57.01 57.92 49.7 40.4"/><polygon class="cls-1" points="55.15 39.27 70.76 32.85 56.1 26.82 62.96 10.37 45.52 17.64 38.27 0 30.92 17.85 14.67 11.07 21.07 26.42 5.45 32.85 23.28 40.18 16.35 56.79 32.63 50.01 38.79 64.99 45.14 49.57 62.46 56.79 55.15 39.27"/></g></g></svg>